<svg width="200" height="200" xmlns="http://www.w3.org/2000/svg" xmlns:xlink="http://www.w3.org/1999/xlink" overflow="hidden"><defs><clipPath id="clip0"><rect x="250" y="130" width="200" height="200"/></clipPath></defs><g clip-path="url(#clip0)" transform="translate(-250 -130)"><path d="M412.5 229.65 387.5 229.65C387.5 208.938 404.288 192.15 425 192.15 431.9 192.15 437.5 186.562 437.5 179.65 437.5 172.75 431.9 167.15 425 167.15 390.487 167.15 362.5 195.137 362.5 229.65L362.5 279.65C362.5 293.462 373.7 304.65 387.5 304.65L412.5 304.65C426.3 304.65 437.5 293.462 437.5 279.65L437.5 254.65C437.5 240.837 426.3 229.65 412.5 229.65ZM325 192.15C331.9 192.15 337.5 186.562 337.5 179.65 337.5 172.75 331.9 167.15 325 167.15 290.487 167.15 262.5 195.137 262.5 229.65L262.5 279.65C262.5 293.462 273.688 304.65 287.5 304.65L312.5 304.65C326.312 304.65 337.5 293.462 337.5 279.65L337.5 254.65C337.5 240.837 326.312 229.65 312.5 229.65L287.5 229.65C287.5 208.938 304.288 192.15 325 192.15Z" fill="#2EA121"/></g></svg>