<svg id="ehkSUj8oipM1" xmlns="http://www.w3.org/2000/svg" xmlns:xlink="http://www.w3.org/1999/xlink" viewBox="0 0 1000 1000" shape-rendering="geometricPrecision" text-rendering="geometricPrecision"><defs><linearGradient id="ehkSUj8oipM4-fill" x1="0.001300" y1="265.019700" x2="0.001300" y2="-265.022900" spreadMethod="pad" gradientUnits="userSpaceOnUse"><stop id="ehkSUj8oipM4-fill-0" offset="0%" stop-color="rgb(86,181,253)"/><stop id="ehkSUj8oipM4-fill-1" offset="100%" stop-color="rgb(111,192,253)"/><stop id="ehkSUj8oipM4-fill-2" offset="100%" stop-color="rgb(86,181,253)"/></linearGradient><linearGradient id="ehkSUj8oipM6-fill" x1="-0.002400" y1="66.113600" x2="-0.002400" y2="-66.120600" spreadMethod="pad" gradientUnits="userSpaceOnUse"><stop id="ehkSUj8oipM6-fill-0" offset="0%" stop-color="rgb(254,178,107)"/><stop id="ehkSUj8oipM6-fill-1" offset="100%" stop-color="rgb(254,236,186)"/></linearGradient><linearGradient id="ehkSUj8oipM10-fill" x1="0.001300" y1="265.019700" x2="0.001300" y2="-265.022900" spreadMethod="pad" gradientUnits="userSpaceOnUse"><stop id="ehkSUj8oipM10-fill-0" offset="0%" stop-color="rgb(86,181,253)"/><stop id="ehkSUj8oipM10-fill-1" offset="100%" stop-color="rgb(111,192,253)"/><stop id="ehkSUj8oipM10-fill-2" offset="100%" stop-color="rgb(86,181,253)"/></linearGradient><linearGradient id="ehkSUj8oipM13-fill" x1="761.878500" y1="431.757800" x2="36.399100" y2="431.757800" spreadMethod="pad" gradientUnits="userSpaceOnUse"><stop id="ehkSUj8oipM13-fill-0" offset="0%" stop-color="rgb(255,90,116)"/><stop id="ehkSUj8oipM13-fill-1" offset="100%" stop-color="rgb(249,206,153)"/></linearGradient><linearGradient id="ehkSUj8oipM14-fill" x1="761.878500" y1="393.475000" x2="135.917500" y2="393.475000" spreadMethod="pad" gradientUnits="userSpaceOnUse"><stop id="ehkSUj8oipM14-fill-0" offset="0%" stop-color="rgb(255,90,116)"/><stop id="ehkSUj8oipM14-fill-1" offset="100%" stop-color="rgb(249,206,153)"/></linearGradient><linearGradient id="ehkSUj8oipM15-fill" x1="761.878500" y1="465.483600" x2="221.870200" y2="465.483600" spreadMethod="pad" gradientUnits="userSpaceOnUse"><stop id="ehkSUj8oipM15-fill-0" offset="0%" stop-color="rgb(255,90,116)"/><stop id="ehkSUj8oipM15-fill-1" offset="100%" stop-color="rgb(249,206,153)"/></linearGradient><linearGradient id="ehkSUj8oipM16-fill" x1="729.870832" y1="389.088401" x2="56.830483" y2="318.644504" spreadMethod="pad" gradientUnits="userSpaceOnUse"><stop id="ehkSUj8oipM16-fill-0" offset="0%" stop-color="rgb(255,90,116)"/><stop id="ehkSUj8oipM16-fill-1" offset="100%" stop-color="rgb(249,206,153)"/></linearGradient><linearGradient id="ehkSUj8oipM18-fill" x1="576.903900" y1="301.908400" x2="680.767100" y2="301.908400" spreadMethod="pad" gradientUnits="userSpaceOnUse"><stop id="ehkSUj8oipM18-fill-0" offset="0%" stop-color="rgb(255,255,255)"/><stop id="ehkSUj8oipM18-fill-1" offset="100%" stop-color="rgb(214,250,255)"/></linearGradient><linearGradient id="ehkSUj8oipM19-fill" x1="610.160000" y1="256.840800" x2="465.068900" y2="256.840800" spreadMethod="pad" gradientUnits="userSpaceOnUse"><stop id="ehkSUj8oipM19-fill-0" offset="0%" stop-color="rgb(255,255,255)"/><stop id="ehkSUj8oipM19-fill-1" offset="100%" stop-color="rgb(214,250,255)"/></linearGradient><linearGradient id="ehkSUj8oipM20-fill" x1="380.245000" y1="333.516200" x2="486.416200" y2="333.516200" spreadMethod="pad" gradientUnits="userSpaceOnUse"><stop id="ehkSUj8oipM20-fill-0" offset="0%" stop-color="rgb(255,255,255)"/><stop id="ehkSUj8oipM20-fill-1" offset="100%" stop-color="rgb(214,250,255)"/></linearGradient><linearGradient id="ehkSUj8oipM22-fill" x1="576.903900" y1="301.908400" x2="680.767100" y2="301.908400" spreadMethod="pad" gradientUnits="userSpaceOnUse"><stop id="ehkSUj8oipM22-fill-0" offset="0%" stop-color="rgb(255,255,255)"/><stop id="ehkSUj8oipM22-fill-1" offset="100%" stop-color="rgb(214,250,255)"/></linearGradient><linearGradient id="ehkSUj8oipM23-fill" x1="610.160000" y1="256.840800" x2="465.068900" y2="256.840800" spreadMethod="pad" gradientUnits="userSpaceOnUse"><stop id="ehkSUj8oipM23-fill-0" offset="0%" stop-color="rgb(255,255,255)"/><stop id="ehkSUj8oipM23-fill-1" offset="100%" stop-color="rgb(214,250,255)"/></linearGradient><linearGradient id="ehkSUj8oipM24-fill" x1="380.245000" y1="333.516200" x2="486.416200" y2="333.516200" spreadMethod="pad" gradientUnits="userSpaceOnUse"><stop id="ehkSUj8oipM24-fill-0" offset="0%" stop-color="rgb(255,255,255)"/><stop id="ehkSUj8oipM24-fill-1" offset="100%" stop-color="rgb(214,250,255)"/></linearGradient><linearGradient id="ehkSUj8oipM25-fill" x1="691.670600" y1="165.014000" x2="609.915400" y2="306.012100" spreadMethod="pad" gradientUnits="userSpaceOnUse"><stop id="ehkSUj8oipM25-fill-0" offset="0%" stop-color="rgb(36,19,73)"/><stop id="ehkSUj8oipM25-fill-1" offset="100%" stop-color="rgb(146,76,112)"/></linearGradient><linearGradient id="ehkSUj8oipM26-stroke" x1="636.889000" y1="291.163400" x2="659.606000" y2="291.163400" spreadMethod="pad" gradientUnits="userSpaceOnUse"><stop id="ehkSUj8oipM26-stroke-0" offset="0%" stop-color="rgb(0,104,145)"/><stop id="ehkSUj8oipM26-stroke-1" offset="100%" stop-color="rgb(89,68,138)"/></linearGradient><linearGradient id="ehkSUj8oipM27-fill" x1="675.279300" y1="171.132400" x2="622.204200" y2="262.667800" spreadMethod="pad" gradientUnits="userSpaceOnUse"><stop id="ehkSUj8oipM27-fill-0" offset="0%" stop-color="rgb(28,31,52)"/><stop id="ehkSUj8oipM27-fill-1" offset="100%" stop-color="rgb(31,102,125)"/></linearGradient><linearGradient id="ehkSUj8oipM28-fill" x1="350.979200" y1="473.820100" x2="511.755900" y2="376.869600" spreadMethod="pad" gradientUnits="userSpaceOnUse"><stop id="ehkSUj8oipM28-fill-0" offset="0%" stop-color="rgb(36,19,73)"/><stop id="ehkSUj8oipM28-fill-1" offset="100%" stop-color="rgb(177,76,172)"/></linearGradient><linearGradient id="ehkSUj8oipM29-fill" x1="141.214428" y1="635.561305" x2="475.146900" y2="403.492800" spreadMethod="pad" gradientUnits="userSpaceOnUse"><stop id="ehkSUj8oipM29-fill-0" offset="0%" stop-color="rgb(29,30,42)"/><stop id="ehkSUj8oipM29-fill-1" offset="100%" stop-color="rgb(58,67,168)"/></linearGradient><linearGradient id="ehkSUj8oipM31-fill" x1="377.186800" y1="356.566700" x2="329.612900" y2="438.614400" spreadMethod="pad" gradientUnits="userSpaceOnUse"><stop id="ehkSUj8oipM31-fill-0" offset="0%" stop-color="rgb(26,26,36)"/><stop id="ehkSUj8oipM31-fill-1" offset="58.380000%" stop-color="rgb(42,46,68)"/></linearGradient><linearGradient id="ehkSUj8oipM32-fill" x1="415.070800" y1="258.500900" x2="394.254500" y2="294.401600" spreadMethod="pad" gradientUnits="userSpaceOnUse"><stop id="ehkSUj8oipM32-fill-0" offset="41.620000%" stop-color="rgb(42,46,68)"/><stop id="ehkSUj8oipM32-fill-1" offset="100%" stop-color="rgb(26,26,36)"/></linearGradient><linearGradient id="ehkSUj8oipM33-stroke" x1="326.463200" y1="251.211600" x2="837.066200" y2="251.211600" spreadMethod="pad" gradientUnits="userSpaceOnUse"><stop id="ehkSUj8oipM33-stroke-0" offset="0%" stop-color="rgb(51,62,71)"/><stop id="ehkSUj8oipM33-stroke-1" offset="100%" stop-color="rgb(66,67,168)"/></linearGradient><linearGradient id="ehkSUj8oipM35-stroke" x1="429.403900" y1="279.287400" x2="878.355500" y2="279.287400" spreadMethod="pad" gradientUnits="userSpaceOnUse"><stop id="ehkSUj8oipM35-stroke-0" offset="0%" stop-color="rgb(51,62,71)"/><stop id="ehkSUj8oipM35-stroke-1" offset="100%" stop-color="rgb(66,67,168)"/></linearGradient><linearGradient id="ehkSUj8oipM44-fill" x1="384.346800" y1="389.595600" x2="323.997400" y2="480.474600" spreadMethod="pad" gradientUnits="userSpaceOnUse"><stop id="ehkSUj8oipM44-fill-0" offset="0%" stop-color="rgb(40,62,68)"/><stop id="ehkSUj8oipM44-fill-1" offset="100%" stop-color="rgb(26,26,36)"/></linearGradient><linearGradient id="ehkSUj8oipM45-fill" x1="361.491600" y1="391.585300" x2="263.877100" y2="557.777200" spreadMethod="pad" gradientUnits="userSpaceOnUse"><stop id="ehkSUj8oipM45-fill-0" offset="0%" stop-color="rgb(45,105,115)"/><stop id="ehkSUj8oipM45-fill-1" offset="100%" stop-color="rgb(26,26,36)"/></linearGradient><linearGradient id="ehkSUj8oipM46-fill" x1="804.603300" y1="281.421600" x2="688.527500" y2="479.044200" spreadMethod="pad" gradientUnits="userSpaceOnUse"><stop id="ehkSUj8oipM46-fill-0" offset="0%" stop-color="rgb(36,19,73)"/><stop id="ehkSUj8oipM46-fill-1" offset="100%" stop-color="rgb(179,132,198)"/></linearGradient><linearGradient id="ehkSUj8oipM47-fill" x1="848.842200" y1="529.714200" x2="650.459200" y2="341.288600" spreadMethod="pad" gradientUnits="userSpaceOnUse"><stop id="ehkSUj8oipM47-fill-0" offset="0%" stop-color="rgb(36,19,73)"/><stop id="ehkSUj8oipM47-fill-1" offset="100%" stop-color="rgb(58,67,168)"/></linearGradient><linearGradient id="ehkSUj8oipM48-fill" x1="666.967200" y1="483.956600" x2="415.346800" y2="912.348300" spreadMethod="pad" gradientUnits="userSpaceOnUse"><stop id="ehkSUj8oipM48-fill-0" offset="0%" stop-color="rgb(42,46,68)"/><stop id="ehkSUj8oipM48-fill-1" offset="100%" stop-color="rgb(26,26,36)"/></linearGradient><linearGradient id="ehkSUj8oipM49-fill" x1="659.269800" y1="583.120100" x2="932.114600" y2="583.120100" spreadMethod="pad" gradientUnits="userSpaceOnUse"><stop id="ehkSUj8oipM49-fill-0" offset="0%" stop-color="rgb(193,80,142)"/><stop id="ehkSUj8oipM49-fill-1" offset="100%" stop-color="rgb(27,30,80)"/></linearGradient><linearGradient id="ehkSUj8oipM52-stroke" x1="638.426500" y1="466.620300" x2="752.562900" y2="466.620300" spreadMethod="pad" gradientUnits="userSpaceOnUse"><stop id="ehkSUj8oipM52-stroke-0" offset="0%" stop-color="rgb(51,62,71)"/><stop id="ehkSUj8oipM52-stroke-1" offset="100%" stop-color="rgb(66,67,168)"/></linearGradient><linearGradient id="ehkSUj8oipM70-stroke" x1="710.973800" y1="464.977500" x2="766.215600" y2="464.977500" spreadMethod="pad" gradientUnits="userSpaceOnUse"><stop id="ehkSUj8oipM70-stroke-0" offset="0%" stop-color="rgb(51,62,71)"/><stop id="ehkSUj8oipM70-stroke-1" offset="100%" stop-color="rgb(66,67,168)"/></linearGradient><linearGradient id="ehkSUj8oipM72-fill" x1="702.434300" y1="549.978200" x2="968.202943" y2="575.355472" spreadMethod="pad" gradientUnits="userSpaceOnUse"><stop id="ehkSUj8oipM72-fill-0" offset="0%" stop-color="rgb(36,19,73)"/><stop id="ehkSUj8oipM72-fill-1" offset="100%" stop-color="rgb(58,67,168)"/></linearGradient><linearGradient id="ehkSUj8oipM75-stroke" x1="739.314200" y1="450.791900" x2="815.313200" y2="450.791900" spreadMethod="pad" gradientUnits="userSpaceOnUse"><stop id="ehkSUj8oipM75-stroke-0" offset="0%" stop-color="rgb(51,62,71)"/><stop id="ehkSUj8oipM75-stroke-1" offset="100%" stop-color="rgb(66,67,168)"/></linearGradient><linearGradient id="ehkSUj8oipM77-fill" x1="0.286847" y1="1.088282" x2="0.543767" y2="0.181398" spreadMethod="pad" gradientUnits="objectBoundingBox"><stop id="ehkSUj8oipM77-fill-0" offset="0%" stop-color="rgb(224,105,114)"/><stop id="ehkSUj8oipM77-fill-1" offset="100%" stop-color="rgb(255,183,129)"/></linearGradient><linearGradient id="ehkSUj8oipM79-stroke" x1="755.820800" y1="487.219200" x2="815.742800" y2="487.219200" spreadMethod="pad" gradientUnits="userSpaceOnUse"><stop id="ehkSUj8oipM79-stroke-0" offset="0%" stop-color="rgb(51,62,71)"/><stop id="ehkSUj8oipM79-stroke-1" offset="100%" stop-color="rgb(66,67,168)"/></linearGradient><linearGradient id="ehkSUj8oipM87-stroke" x1="780.676000" y1="453.049100" x2="816.403800" y2="453.049100" spreadMethod="pad" gradientUnits="userSpaceOnUse"><stop id="ehkSUj8oipM87-stroke-0" offset="0%" stop-color="rgb(51,62,71)"/><stop id="ehkSUj8oipM87-stroke-1" offset="100%" stop-color="rgb(66,67,168)"/></linearGradient><linearGradient id="ehkSUj8oipM89-fill" x1="505.233400" y1="907.068100" x2="505.233400" y2="469.744100" spreadMethod="pad" gradientUnits="userSpaceOnUse"><stop id="ehkSUj8oipM89-fill-0" offset="0%" stop-color="rgb(50,139,153)"/><stop id="ehkSUj8oipM89-fill-1" offset="66.080000%" stop-color="rgb(169,241,205)"/></linearGradient><linearGradient id="ehkSUj8oipM90-fill" x1="788.620616" y1="96.350121" x2="545.641994" y2="462.952226" spreadMethod="pad" gradientUnits="userSpaceOnUse"><stop id="ehkSUj8oipM90-fill-0" offset="0%" stop-color="rgb(36,19,73)"/><stop id="ehkSUj8oipM90-fill-1" offset="100%" stop-color="rgb(146,76,112)"/></linearGradient><linearGradient id="ehkSUj8oipM91-fill" x1="474.618700" y1="674.011806" x2="789.259600" y2="508.772320" spreadMethod="pad" gradientUnits="userSpaceOnUse"><stop id="ehkSUj8oipM91-fill-0" offset="0%" stop-color="rgb(51,62,71)"/><stop id="ehkSUj8oipM91-fill-1" offset="100%" stop-color="rgb(66,67,168)"/></linearGradient><linearGradient id="ehkSUj8oipM115-fill" x1="458.512319" y1="891.241510" x2="413.318312" y2="750.627015" spreadMethod="pad" gradientUnits="userSpaceOnUse"><stop id="ehkSUj8oipM115-fill-0" offset="0%" stop-color="rgb(50,139,153)"/><stop id="ehkSUj8oipM115-fill-1" offset="66.080000%" stop-color="rgb(169,241,205)"/></linearGradient><linearGradient id="ehkSUj8oipM116-fill" x1="385.891000" y1="169.348700" x2="417.115800" y2="239.976400" spreadMethod="pad" gradientUnits="userSpaceOnUse"><stop id="ehkSUj8oipM116-fill-0" offset="0%" stop-color="rgb(13,34,52)"/><stop id="ehkSUj8oipM116-fill-1" offset="100%" stop-color="rgb(35,86,173)"/></linearGradient><linearGradient id="ehkSUj8oipM117-fill" x1="680.691080" y1="802.357801" x2="615.778985" y2="741.979372" spreadMethod="pad" gradientUnits="userSpaceOnUse"><stop id="ehkSUj8oipM117-fill-0" offset="0%" stop-color="rgb(21,32,52)"/><stop id="ehkSUj8oipM117-fill-1" offset="100%" stop-color="rgb(43,136,172)"/></linearGradient><linearGradient id="ehkSUj8oipM118-fill" x1="824.141336" y1="896.979967" x2="683.919857" y2="816.913061" spreadMethod="pad" gradientUnits="userSpaceOnUse"><stop id="ehkSUj8oipM118-fill-0" offset="0%" stop-color="rgba(21,32,52,0.17)"/><stop id="ehkSUj8oipM118-fill-1" offset="100%" stop-color="rgb(54,172,168)"/></linearGradient><linearGradient id="ehkSUj8oipM121-fill" x1="608.211010" y1="870.193263" x2="635.383698" y2="831.594668" spreadMethod="pad" gradientUnits="userSpaceOnUse"><stop id="ehkSUj8oipM121-fill-0" offset="0%" stop-color="rgb(50,139,153)"/><stop id="ehkSUj8oipM121-fill-1" offset="100%" stop-color="rgb(232,255,201)"/></linearGradient><linearGradient id="ehkSUj8oipM122-fill" x1="604.712409" y1="826.692067" x2="590.228922" y2="791.195324" spreadMethod="pad" gradientUnits="userSpaceOnUse"><stop id="ehkSUj8oipM122-fill-0" offset="0%" stop-color="rgb(50,139,153)"/><stop id="ehkSUj8oipM122-fill-1" offset="100%" stop-color="rgb(232,255,201)"/></linearGradient><linearGradient id="ehkSUj8oipM123-stroke" x1="599.720500" y1="860.147500" x2="644.148900" y2="860.147500" spreadMethod="pad" gradientUnits="userSpaceOnUse"><stop id="ehkSUj8oipM123-stroke-0" offset="0%" stop-color="rgb(50,139,153)"/><stop id="ehkSUj8oipM123-stroke-1" offset="100%" stop-color="rgb(232,255,201)"/></linearGradient><linearGradient id="ehkSUj8oipM124-fill" x1="602.593657" y1="798.696064" x2="631.679296" y2="786.611515" spreadMethod="pad" gradientUnits="userSpaceOnUse"><stop id="ehkSUj8oipM124-fill-0" offset="0%" stop-color="rgb(50,139,153)"/><stop id="ehkSUj8oipM124-fill-1" offset="100%" stop-color="rgb(232,255,201)"/></linearGradient><linearGradient id="ehkSUj8oipM125-fill" x1="628.984483" y1="885.206888" x2="571.423421" y2="877.168517" spreadMethod="pad" gradientUnits="userSpaceOnUse"><stop id="ehkSUj8oipM125-fill-0" offset="0%" stop-color="rgb(50,139,153)"/><stop id="ehkSUj8oipM125-fill-1" offset="100%" stop-color="rgb(232,255,201)"/></linearGradient><linearGradient id="ehkSUj8oipM126-stroke" x1="698.245400" y1="911.693200" x2="612.916900" y2="829.471500" spreadMethod="pad" gradientUnits="userSpaceOnUse"><stop id="ehkSUj8oipM126-stroke-0" offset="0%" stop-color="rgb(50,139,153)"/><stop id="ehkSUj8oipM126-stroke-1" offset="100%" stop-color="rgb(232,255,201)"/></linearGradient><linearGradient id="ehkSUj8oipM127-fill" x1="686.337601" y1="769.954324" x2="632.261961" y2="769.136063" spreadMethod="pad" gradientUnits="userSpaceOnUse"><stop id="ehkSUj8oipM127-fill-0" offset="0%" stop-color="rgb(50,139,153)"/><stop id="ehkSUj8oipM127-fill-1" offset="100%" stop-color="rgb(232,255,201)"/></linearGradient><linearGradient id="ehkSUj8oipM128-fill" x1="672.512901" y1="770.435695" x2="660.906754" y2="739.150512" spreadMethod="pad" gradientUnits="userSpaceOnUse"><stop id="ehkSUj8oipM128-fill-0" offset="0%" stop-color="rgb(50,139,153)"/><stop id="ehkSUj8oipM128-fill-1" offset="100%" stop-color="rgb(232,255,201)"/></linearGradient><linearGradient id="ehkSUj8oipM129-fill" x1="698.584716" y1="824.676136" x2="659.642964" y2="787.148626" spreadMethod="pad" gradientUnits="userSpaceOnUse"><stop id="ehkSUj8oipM129-fill-0" offset="0%" stop-color="rgb(50,139,153)"/><stop id="ehkSUj8oipM129-fill-1" offset="100%" stop-color="rgb(232,255,201)"/></linearGradient><linearGradient id="ehkSUj8oipM130-fill" x1="692.069290" y1="801.063063" x2="696.264248" y2="763.659499" spreadMethod="pad" gradientUnits="userSpaceOnUse"><stop id="ehkSUj8oipM130-fill-0" offset="0%" stop-color="rgb(50,139,153)"/><stop id="ehkSUj8oipM130-fill-1" offset="100%" stop-color="rgb(232,255,201)"/></linearGradient><linearGradient id="ehkSUj8oipM131-fill" x1="656.309163" y1="903.100526" x2="654.955714" y2="845.039356" spreadMethod="pad" gradientUnits="userSpaceOnUse"><stop id="ehkSUj8oipM131-fill-0" offset="0%" stop-color="rgb(50,139,153)"/><stop id="ehkSUj8oipM131-fill-1" offset="100%" stop-color="rgb(232,255,201)"/></linearGradient><linearGradient id="ehkSUj8oipM132-fill" x1="669.794368" y1="863.160132" x2="713.385373" y2="845.048869" spreadMethod="pad" gradientUnits="userSpaceOnUse"><stop id="ehkSUj8oipM132-fill-0" offset="0%" stop-color="rgb(50,139,153)"/><stop id="ehkSUj8oipM132-fill-1" offset="100%" stop-color="rgb(232,255,201)"/></linearGradient><linearGradient id="ehkSUj8oipM133-fill" x1="641.946376" y1="966.153864" x2="604.405146" y2="902.570906" spreadMethod="pad" gradientUnits="userSpaceOnUse"><stop id="ehkSUj8oipM133-fill-0" offset="0%" stop-color="rgb(50,139,153)"/><stop id="ehkSUj8oipM133-fill-1" offset="100%" stop-color="rgb(232,255,201)"/></linearGradient><linearGradient id="ehkSUj8oipM134-fill" x1="631.500175" y1="950.514954" x2="659.688802" y2="914.720266" spreadMethod="pad" gradientUnits="userSpaceOnUse"><stop id="ehkSUj8oipM134-fill-0" offset="0%" stop-color="rgb(50,139,153)"/><stop id="ehkSUj8oipM134-fill-1" offset="100%" stop-color="rgb(232,255,201)"/></linearGradient><linearGradient id="ehkSUj8oipM136-fill" x1="702.584490" y1="960.061085" x2="781.241348" y2="855.536686" spreadMethod="pad" gradientUnits="userSpaceOnUse"><stop id="ehkSUj8oipM136-fill-0" offset="0%" stop-color="rgb(50,139,153)"/><stop id="ehkSUj8oipM136-fill-1" offset="100%" stop-color="rgb(169,241,205)"/></linearGradient><linearGradient id="ehkSUj8oipM138-fill" x1="663.449800" y1="867.798300" x2="725.368700" y2="867.798300" spreadMethod="pad" gradientUnits="userSpaceOnUse"><stop id="ehkSUj8oipM138-fill-0" offset="0%" stop-color="rgb(255,202,145)"/><stop id="ehkSUj8oipM138-fill-1" offset="100%" stop-color="rgb(255,226,120)"/><stop id="ehkSUj8oipM138-fill-2" offset="100%" stop-color="rgb(255,202,145)"/></linearGradient><linearGradient id="ehkSUj8oipM140-fill" x1="291.024218" y1="66.496849" x2="414.064501" y2="191.532379" spreadMethod="pad" gradientUnits="userSpaceOnUse"><stop id="ehkSUj8oipM140-fill-0" offset="0%" stop-color="rgb(21,32,52)"/><stop id="ehkSUj8oipM140-fill-1" offset="100%" stop-color="rgb(29,125,112)"/></linearGradient><linearGradient id="ehkSUj8oipM141-fill" x1="771.762800" y1="11.330600" x2="671.372200" y2="203.870800" spreadMethod="pad" gradientUnits="userSpaceOnUse"><stop id="ehkSUj8oipM141-fill-0" offset="0%" stop-color="rgb(21,32,52)"/><stop id="ehkSUj8oipM141-fill-1" offset="100%" stop-color="rgb(101,163,113)"/></linearGradient><linearGradient id="ehkSUj8oipM142-fill" x1="702.434300" y1="549.978200" x2="968.202943" y2="575.355472" spreadMethod="pad" gradientUnits="userSpaceOnUse"><stop id="ehkSUj8oipM142-fill-0" offset="0%" stop-color="rgb(56,65,160)"/><stop id="ehkSUj8oipM142-fill-1" offset="100%" stop-color="rgb(37,40,58)"/></linearGradient><radialGradient id="ehkSUj8oipM143-fill" cx="0" cy="0" r="0.705948" spreadMethod="pad" gradientUnits="objectBoundingBox" gradientTransform="matrix(1 0 0 1 0.50000000000000 0.50000000000000)"><stop id="ehkSUj8oipM143-fill-0" offset="56%" stop-color="rgba(26,26,36,0)"/><stop id="ehkSUj8oipM143-fill-1" offset="100%" stop-color="rgb(26,26,36)"/></radialGradient><radialGradient id="ehkSUj8oipM151-fill" cx="0" cy="0" r="38.448300" spreadMethod="pad" gradientUnits="userSpaceOnUse" gradientTransform="matrix(0.85890000000000 -0.51220000000000 0.51220000000000 0.85890000000000 579.79600000000005 361.04800000000000)"><stop id="ehkSUj8oipM151-fill-0" offset="0%" stop-color="rgb(219,242,250)"/><stop id="ehkSUj8oipM151-fill-1" offset="100%" stop-color="rgb(255,223,229)"/></radialGradient><linearGradient id="ehkSUj8oipM153-fill" x1="565.529680" y1="389.538702" x2="600.222869" y2="390.385469" spreadMethod="pad" gradientUnits="userSpaceOnUse"><stop id="ehkSUj8oipM153-fill-0" offset="0%" stop-color="rgb(255,205,133)"/><stop id="ehkSUj8oipM153-fill-1" offset="100%" stop-color="rgb(255,245,151)"/></linearGradient><radialGradient id="ehkSUj8oipM156-fill" cx="0" cy="0" r="23.841500" spreadMethod="pad" gradientUnits="userSpaceOnUse" gradientTransform="matrix(0.92070000000000 -0.39020000000000 0.39020000000000 0.92070000000000 601.39400000000001 348.65699999999998)"><stop id="ehkSUj8oipM156-fill-0" offset="0%" stop-color="rgb(219,242,250)"/><stop id="ehkSUj8oipM156-fill-1" offset="100%" stop-color="rgb(255,223,229)"/></radialGradient><linearGradient id="ehkSUj8oipM157-fill" x1="591.415138" y1="361.653171" x2="603.342458" y2="361.944285" spreadMethod="pad" gradientUnits="userSpaceOnUse"><stop id="ehkSUj8oipM157-fill-0" offset="0%" stop-color="rgb(32,70,88)"/><stop id="ehkSUj8oipM157-fill-1" offset="100%" stop-color="rgb(27,55,73)"/></linearGradient><linearGradient id="ehkSUj8oipM158-fill" x1="599.196422" y1="354.129212" x2="628.982883" y2="354.856220" spreadMethod="pad" gradientUnits="userSpaceOnUse"><stop id="ehkSUj8oipM158-fill-0" offset="0%" stop-color="rgb(255,205,133)"/><stop id="ehkSUj8oipM158-fill-1" offset="100%" stop-color="rgb(255,245,151)"/></linearGradient><linearGradient id="ehkSUj8oipM159-fill" x1="599.246286" y1="351.918175" x2="602.914985" y2="352.007719" spreadMethod="pad" gradientUnits="userSpaceOnUse"><stop id="ehkSUj8oipM159-fill-0" offset="0%" stop-color="rgb(32,70,88)"/><stop id="ehkSUj8oipM159-fill-1" offset="100%" stop-color="rgb(27,55,73)"/></linearGradient><radialGradient id="ehkSUj8oipM161-fill" cx="0" cy="0" r="39.401600" spreadMethod="pad" gradientUnits="userSpaceOnUse" gradientTransform="matrix(0.85890000000000 -0.51220000000000 0.51220000000000 0.85890000000000 562.37500000000000 379.10199999999998)"><stop id="ehkSUj8oipM161-fill-0" offset="0%" stop-color="rgb(219,242,250)"/><stop id="ehkSUj8oipM161-fill-1" offset="100%" stop-color="rgb(255,223,229)"/></radialGradient><linearGradient id="ehkSUj8oipM163-fill" x1="548.171212" y1="369.769912" x2="581.304869" y2="370.578616" spreadMethod="pad" gradientUnits="userSpaceOnUse"><stop id="ehkSUj8oipM163-fill-0" offset="0%" stop-color="rgb(255,205,133)"/><stop id="ehkSUj8oipM163-fill-1" offset="100%" stop-color="rgb(255,245,151)"/></linearGradient><linearGradient id="ehkSUj8oipM164-fill" x1="564.557977" y1="369.732040" x2="581.315549" y2="370.141047" spreadMethod="pad" gradientUnits="userSpaceOnUse"><stop id="ehkSUj8oipM164-fill-0" offset="0%" stop-color="rgb(32,70,88)"/><stop id="ehkSUj8oipM164-fill-1" offset="100%" stop-color="rgb(27,55,73)"/></linearGradient><linearGradient id="ehkSUj8oipM167-fill" x1="357.829200" y1="533.259600" x2="822.417400" y2="533.259600" spreadMethod="pad" gradientUnits="userSpaceOnUse"><stop id="ehkSUj8oipM167-fill-0" offset="0%" stop-color="rgb(138,138,138)"/><stop id="ehkSUj8oipM167-fill-1" offset="100%" stop-color="rgb(255,255,255)"/></linearGradient></defs><g id="ehkSUj8oipM2"><circle id="ehkSUj8oipM3" r="259.660000" transform="matrix(1 0 0 1 308.76999999999998 698.16999999999996)" fill="rgb(169,241,205)" stroke="none" stroke-width="1"/><circle id="ehkSUj8oipM4" r="265.020000" transform="matrix(1 0 0 1 358.94000000000000 301.91000000000003)" fill="url(#ehkSUj8oipM4-fill)" stroke="none" stroke-width="1"/><circle id="ehkSUj8oipM5" r="260.620000" transform="matrix(1 0 0 1 661.69000000000005 492.44000000000000)" fill="rgb(255,97,122)" stroke="none" stroke-width="1"/></g><circle id="ehkSUj8oipM6" r="66.120000" transform="matrix(1 0 0 1 736.82000000000005 118.29000000000001)" fill="url(#ehkSUj8oipM6-fill)" stroke="none" stroke-width="1"/><g id="ehkSUj8oipM7" mask="url(#ehkSUj8oipM165)"><g id="ehkSUj8oipM8"><rect id="ehkSUj8oipM9" width="1002.100000" height="1000" rx="0" ry="0" transform="matrix(1 0 0 1 -1.75625000000000 0)" fill="rgb(26,26,36)" stroke="none" stroke-width="1"/><circle id="ehkSUj8oipM10" r="265.020000" transform="matrix(1 0 0 1 358.94000000000000 301.91000000000003)" fill="url(#ehkSUj8oipM10-fill)" stroke="none" stroke-width="1"/><circle id="ehkSUj8oipM11" r="260.620000" transform="matrix(1 0 0 1 661.69000000000005 492.44000000000000)" fill="rgb(255,97,122)" stroke="none" stroke-width="1"/><g id="ehkSUj8oipM12"><polygon id="ehkSUj8oipM13" style="mix-blend-mode:screen" points="761.880000,83.470000 181.670000,780.050000 36.400000,621.120000 761.880000,83.470000" transform="matrix(0.99963400000000 -0.02704100000000 0.02704100000000 0.99963400000000 -2.86555000000000 20.20330000000000)" opacity="0.25" fill="url(#ehkSUj8oipM13-fill)" stroke="none" stroke-width="1"/><polygon id="ehkSUj8oipM14" style="mix-blend-mode:screen" points="761.880000,83.470000 186.620000,703.480000 135.920000,672.710000 761.880000,83.470000" transform="matrix(0.99934200000000 -0.03626200000000 0.03626300000000 0.99934200000000 -3.66586000000000 26.82470000000000)" opacity="0.25" fill="url(#ehkSUj8oipM14-fill)" stroke="none" stroke-width="1"/><polygon id="ehkSUj8oipM15" style="mix-blend-mode:screen" points="761.880000,83.470000 272.570000,847.500000 221.870000,816.720000 761.880000,83.470000" transform="matrix(0.99982700000000 0.01861600000000 -0.01861600000000 0.99982700000000 2.19693000000000 -13.74830000000000)" opacity="0.25" fill="url(#ehkSUj8oipM15-fill)" stroke="none" stroke-width="1"/><polygon id="ehkSUj8oipM16" style="mix-blend-mode:screen" points="761.880000,83.470000 114.860000,633.710000 36.400000,514.370000 761.880000,83.470000" transform="matrix(0.99979300000000 -0.02032600000000 0.02032600000000 0.99979300000000 -1.69457000000000 15.45850000000000)" opacity="0.25" fill="url(#ehkSUj8oipM16-fill)" stroke="none" stroke-width="1"/></g><g id="ehkSUj8oipM17" transform="matrix(1 0 0 1 343.63799999999998 0)"><path id="ehkSUj8oipM18" d="M576.900000,318.460000C581.400000,310.210000,586.270000,311.860000,592.200000,311.860000C605.820000,311.860000,607.400000,297.800000,618.120000,297.800000C621.110000,297.800000,624.220000,298.920000,627.070000,298.920000C635.680000,298.920000,638.540000,285.370000,647.360000,285.370000C655.620000,285.370000,657.660000,296.360000,660.970000,303.680000C670.600000,306.120000,678.680000,309.930000,680.760000,318.470000L576.900000,318.470000Z" fill="url(#ehkSUj8oipM18-fill)" stroke="none" stroke-width="1"/><path id="ehkSUj8oipM19" d="M610.160000,277.940000C606.080000,270.650000,599.550000,275.350000,594.190000,271.570000C581.220000,262.400000,588.280000,255.850000,567.070000,255.780000C559.710000,247.820000,558.160000,235.610000,545.070000,235.730000C528.950000,235.870000,538.590000,260.670000,523.280000,260.670000C520.750000,260.670000,518.160000,259.880000,515.670000,259.880000C503.680000,259.880000,511.570000,271.920000,482.410000,271.920000C476.160000,271.920000,468.140000,272.690000,465.060000,277.940000L610.160000,277.940000Z" fill="url(#ehkSUj8oipM19-fill)" stroke="none" stroke-width="1"/><path id="ehkSUj8oipM20" d="M380.250000,352.810000C383.020000,345.510000,388.370000,349.220000,393.690000,345.460000C401.380000,340.030000,399.410000,330.560000,414.220000,330.560000C414.390000,330.560000,414.560000,330.560000,414.720000,330.560000C430.790000,330.560000,429.830000,314.210000,442.220000,314.210000C454.430000,314.210000,453.050000,328.900000,461.180000,333.970000C469.600000,339.220000,486.430000,339.530000,486.430000,352.810000L380.250000,352.810000Z" fill="url(#ehkSUj8oipM20-fill)" stroke="none" stroke-width="1"/></g><g id="ehkSUj8oipM21" transform="matrix(1 0 0 1 -56.36600000000000 0)"><path id="ehkSUj8oipM22" d="M576.900000,318.460000C581.400000,310.210000,586.270000,311.860000,592.200000,311.860000C605.820000,311.860000,607.400000,297.800000,618.120000,297.800000C621.110000,297.800000,624.220000,298.920000,627.070000,298.920000C635.680000,298.920000,638.540000,285.370000,647.360000,285.370000C655.620000,285.370000,657.660000,296.360000,660.970000,303.680000C670.600000,306.120000,678.680000,309.930000,680.760000,318.470000L576.900000,318.470000Z" fill="url(#ehkSUj8oipM22-fill)" stroke="none" stroke-width="1"/><path id="ehkSUj8oipM23" d="M610.160000,277.940000C606.080000,270.650000,599.550000,275.350000,594.190000,271.570000C581.220000,262.400000,588.280000,255.850000,567.070000,255.780000C559.710000,247.820000,558.160000,235.610000,545.070000,235.730000C528.950000,235.870000,538.590000,260.670000,523.280000,260.670000C520.750000,260.670000,518.160000,259.880000,515.670000,259.880000C503.680000,259.880000,511.570000,271.920000,482.410000,271.920000C476.160000,271.920000,468.140000,272.690000,465.060000,277.940000L610.160000,277.940000Z" fill="url(#ehkSUj8oipM23-fill)" stroke="none" stroke-width="1"/><path id="ehkSUj8oipM24" d="M380.250000,352.810000C383.020000,345.510000,388.370000,349.220000,393.690000,345.460000C401.380000,340.030000,399.410000,330.560000,414.220000,330.560000C414.390000,330.560000,414.560000,330.560000,414.720000,330.560000C430.790000,330.560000,429.830000,314.210000,442.220000,314.210000C454.430000,314.210000,453.050000,328.900000,461.180000,333.970000C469.600000,339.220000,486.430000,339.530000,486.430000,352.810000L380.250000,352.810000Z" fill="url(#ehkSUj8oipM24-fill)" stroke="none" stroke-width="1"/></g><path id="ehkSUj8oipM25" d="M1000.280462,241.526564C1001.500462,229.846564,999.718859,12.650322,999.718859,0.240322C942.895363,2.739833,812.827164,0.677723,675.247164,0.677723C561.037164,0.677723,481.250000,4.020000,481.250000,134.450000C481.250000,165.940000,503.760000,178.790000,531.950000,178.790000C538.360000,178.790000,545.060000,178.130000,551.860000,176.870000C547.400000,183.150000,536.940000,200.320000,536.940000,211.740000C536.940000,217.600000,539.690000,221.950000,547.430000,222.530000C547.450000,223.010000,547.460000,223.480000,547.460000,223.950000C547.460000,230.930000,545.120000,237.480000,545.120000,244.400000C545.120000,255.440000,550.990000,264.530000,563.620000,264.530000C579.050000,264.530000,599.530000,251.680000,607.310000,242.860000C609.290000,253.930000,607.070000,283.460000,620.460000,283.460000C624.220000,283.460000,629.200000,281.140000,635.850000,275.430000C638.130000,298.990000,646.320000,308.780000,656.800000,308.780000C668.030000,308.780000,681.900000,297.540000,693.940000,279.970000C693.560000,284.300000,693.380000,288.290000,693.380000,291.960000C693.380000,316.960000,701.920000,326.970000,715.510000,326.970000C728.030000,326.970000,744.850000,318.470000,763.220000,305.370000C775.770000,319.280000,837.750632,350.838239,902.810885,287.984026C944.756233,308.014500,995.810462,284.226564,1000.280462,241.526564Z" transform="matrix(1.02383000000000 0 0 0.96854600000000 -23.79840000000000 0.08292700000000)" fill="url(#ehkSUj8oipM25-fill)" stroke="none" stroke-width="1"/><path id="ehkSUj8oipM26" d="M651.050000,149.290000C647.743424,161.781511,657.059319,215.868218,654.910000,289.880000C652.760681,362.422192,651.089721,414.646553,652.329450,433.171347" fill="none" stroke="url(#ehkSUj8oipM26-stroke)" stroke-width="4" stroke-miterlimit="10"/><path id="ehkSUj8oipM27" d="M520.050000,79.700000C502.320000,94.830000,475.290000,132.430000,475.290000,158.460000C475.290000,171.940000,486.360000,179.360000,499.320000,179.360000C508.850000,179.360000,515.680000,175.850000,537.340000,166.460000C539.920000,176.090000,534,206.270000,559.190000,206.270000C573.210000,206.270000,590.020000,194.990000,598.550000,186.390000C598.880000,194.030000,594.740000,227.580000,617.370000,227.580000C633.060000,227.580000,653.340000,209.050000,661.220000,199.270000C663.690000,215.680000,663.630000,241.450000,694.550000,224.860000C699.170000,231.680000,701.990000,244.960000,713.260000,244.960000C731.280000,244.960000,747.070000,215.050000,753.380000,205.480000C744,252.010000,771.260000,272.300000,793.150000,227.560000C805.730000,230.820000,816.260000,242.900000,829.980000,242.900000C849.370000,242.900000,866.110000,228.970000,866.110000,202.490000C866.110000,87.230000,661.120000,-40.680000,520.050000,79.700000Z" transform="matrix(1.12049000000000 0 0.06382200000000 1 -89.86940000000000 0)" fill="url(#ehkSUj8oipM27-fill)" stroke="none" stroke-width="1"/><path id="ehkSUj8oipM28" d="M276.740000,311.960000C271.040000,276.650000,304.060000,226.320000,340.940000,226.320000C392.480000,226.320000,387.480000,292.240000,390.990000,305.030000C436.070000,287.320000,482.010000,298.490000,473.480000,353.330000C473.800000,353.780000,474.140000,354.180000,474.490000,354.630000C503.780000,356.320000,517.080000,379.800000,513.330000,408.270000C546.890000,409.160000,553.850000,445.810000,555.270000,472.630000C587.840000,474.980000,602.950000,505.470000,602.950000,536.900000C602.950000,581.280000,580.030000,610.930000,532.790000,610.930000C457.200000,610.930000,348.200000,496.090000,316.890000,425.930000C300.510000,389.210000,283.140000,351.630000,276.740000,311.960000Z" transform="matrix(1 0 -0.03137500000000 0.98421000000000 20.45830000000000 -3.71154000000000)" fill="url(#ehkSUj8oipM28-fill)" stroke="none" stroke-width="1"/><path id="ehkSUj8oipM29" d="M311.880000,323.980000C320.780000,311.830000,349.770000,295.930000,349.770000,316.630000C349.770000,327.500000,342.590000,344.110000,339.240000,349.970000C354.350000,328.740000,395.210000,317.250000,395.210000,353.160000C395.210000,367.080000,385.480000,379.620000,381.510000,392.530000C394.980000,365.560000,453.740000,347.020000,441.810000,392.390000C446.570000,391.090000,451.920000,389.600000,456.970000,389.600000C467.890000,389.600000,474.330000,398.660000,474.330000,406.940000C474.330000,419.090000,460.900000,429.570000,456.490000,440.660000C474.650000,434.750000,484.530000,437.010000,484.650000,456.300000C527.460000,454.450000,539.220000,476.420000,519.290000,511.950000C536.170000,508.630000,549.280000,511.200000,541.850000,526.710000C552.990000,531.210000,575.100000,527.230000,575.100000,553.830000C575.100000,597.740000,534.640000,584.320000,499.030000,584.370000C405.670000,584.490000,313.820000,573.950000,220.850000,584.810000C209.150000,564.190000,-6.383608,592.656875,-6.383608,569.906875C-6.383608,554.686875,-9.052148,327.852808,-9.052148,312.392808C-9.052148,267.142808,228.410000,292.450000,287.310000,292.450000C300.070000,292.440000,310.450000,301.400000,311.880000,323.980000Z" transform="matrix(1 0 -0.06382200000000 1 35.37810000000000 -10.70330000000000)" fill="url(#ehkSUj8oipM29-fill)" stroke="none" stroke-width="1"/><g id="ehkSUj8oipM30" transform="matrix(0.99103300000000 0 0 1 7.06461000000000 0)"><polygon id="ehkSUj8oipM31" points="370.940000,226.790000 367.110000,453.740000 402.340000,453.740000 392.720000,221.430000" transform="matrix(1 0 0 1 10.39920000000000 7.42802000000000)" fill="url(#ehkSUj8oipM31-fill)" stroke="none" stroke-width="1"/><path id="ehkSUj8oipM32" d="M391.110000,275.550000C387.900000,277.210000,385.190000,281.900000,387.590000,286.480000C389.380000,289.890000,393.410000,290.620000,395.190000,289.210000C424.850000,265.900000,459.997487,221.691951,470.977487,195.141951L467.687487,190.471951C452.367487,218.201951,408.820000,266.370000,391.110000,275.550000Z" transform="matrix(1 0 0 1 10.39920000000000 7.42802000000000)" fill="url(#ehkSUj8oipM32-fill)" stroke="none" stroke-width="1"/><path id="ehkSUj8oipM33" d="M317.903208,224.419240C364.293208,285.689240,448.260000,335.830000,539.400000,335.830000C690.900000,335.830000,780.308997,245.107265,817.582903,161.043556" fill="none" stroke="url(#ehkSUj8oipM33-stroke)" stroke-width="3" stroke-linecap="round" stroke-linejoin="round" stroke-miterlimit="10"/><g id="ehkSUj8oipM34"><path id="ehkSUj8oipM35" d="M875.360000,279.770000C875.360000,279.770000,689.930000,372.280000,557.430000,312C505.070000,288.170000,466.170000,256.180000,438.280000,226.180000C438.280000,226.180000,436.490000,234.880000,443.440000,240.300000C439.750000,243.480000,433.480000,236.220000,433.480000,232.930000C430.850000,239.470000,433.350000,245.340000,437.820000,246.490000C437.820000,252.620000,437.820000,293.210000,437.820000,293.210000" transform="matrix(1 0 0 1 10.39920000000000 7.42802000000000)" fill="none" stroke="url(#ehkSUj8oipM35-stroke)" stroke-width="6" stroke-linecap="round" stroke-linejoin="round" stroke-miterlimit="10"/><path id="ehkSUj8oipM36" d="M473.290000,257.880000C473.800000,260.500000,482.240000,260.330000,482.240000,257.880000C482.240000,255.430000,472.890000,255.830000,473.290000,257.880000Z" fill="rgb(51,61,78)" stroke="none" stroke-width="1"/><path id="ehkSUj8oipM37" d="M474.650000,259.820000C472.120000,260.670000,473.410000,269.010000,475.840000,268.690000C478.270000,268.360000,476.630000,259.150000,474.650000,259.820000Z" fill="rgb(51,61,78)" stroke="none" stroke-width="1"/><path id="ehkSUj8oipM38" d="M508.200000,284.200000C509.690000,287.130000,519.620000,284.070000,518.790000,281.170000C517.960000,278.270000,507.040000,281.910000,508.200000,284.200000Z" fill="rgb(53,62,86)" stroke="none" stroke-width="1"/><path id="ehkSUj8oipM39" d="M604.130000,323.840000C605.620000,326.770000,615.550000,323.710000,614.720000,320.810000C613.890000,317.910000,602.960000,321.550000,604.130000,323.840000Z" transform="matrix(1 0 0 1 -6.30218000000000 4.24185000000000)" fill="rgb(56,64,105)" stroke="none" stroke-width="1"/><path id="ehkSUj8oipM40" d="M667.510000,329.140000C669,332.070000,678.930000,329.010000,678.100000,326.110000C677.270000,323.200000,666.340000,326.840000,667.510000,329.140000Z" fill="rgb(73,67,142)" stroke="none" stroke-width="1"/><path id="ehkSUj8oipM41" d="M601.560000,324.720000C604.730000,325.570000,609.110000,316.150000,606.390000,314.820000C603.680000,313.490000,599.070000,324.040000,601.560000,324.720000Z" transform="matrix(1 0 0 1 -6.30218000000000 4.24185000000000)" fill="rgb(56,64,105)" stroke="none" stroke-width="1"/><path id="ehkSUj8oipM42" d="M521.630000,294.610000C518.520000,295.660000,520.100000,305.930000,523.090000,305.530000C526.090000,305.130000,524.080000,293.790000,521.630000,294.610000Z" fill="rgb(53,62,91)" stroke="none" stroke-width="1"/><path id="ehkSUj8oipM43" d="M520.500000,296.870000C517.690000,295.700000,512.520000,303.820000,514.850000,305.370000C517.180000,306.910000,522.700000,297.790000,520.500000,296.870000Z" fill="rgb(53,62,91)" stroke="none" stroke-width="1"/></g></g><path id="ehkSUj8oipM44" d="M242.307312,320.832412C231.462611,283.586778,256.852270,247.005985,294.300000,277.940000C313.730000,277.940000,329.380000,288.030000,329.380000,308.130000C329.380000,319.060000,324.750000,329.880000,323.400000,340.990000C333.440000,331.050000,351.260000,328.250000,356.290000,328.250000C374.840000,328.250000,368.280000,351.090000,362.250000,368.700000C378.640000,362.340000,395.250000,359.970000,395.250000,377.560000C395.250000,395.840000,374.380000,432.970000,377.600000,426.210000C383.250000,425.240000,399.880000,402.380000,414.710000,402.380000C421.260000,402.380000,425.930000,405.890000,425.930000,411.720000C425.930000,419.080000,419.140000,425.010000,415.770000,432.380000C462.260000,415.510000,432.520000,453.260000,425.330000,469.180000C436.120000,465.160000,445.730000,462.920000,453.900000,462.920000C472.920000,462.920000,481.523908,485.187734,481.853908,514.957734C459.663908,514.957734,81.318618,622.152633,156.648343,469.773966C131.945235,429.674317,149.335993,386.655089,191.120855,390.720373C170.228424,363.873260,187.500855,307.662764,242.307312,320.832412Z" transform="matrix(1.29824000000000 0 0.07712100000000 1.20837000000000 -160.56000000000000 -72.41770000000000)" fill="url(#ehkSUj8oipM44-fill)" stroke="none" stroke-width="1"/><path id="ehkSUj8oipM45" d="M242.070000,383.420000C249.940000,357.360000,263.750000,328.370000,291.090000,328.370000C300,328.370000,307.570000,332.840000,307.570000,344.850000C307.570000,357.030000,296.900000,373.600000,298.250000,375.090000C319.740000,370.370000,315.930000,392.520000,306.090000,410.920000C317.540000,399.120000,346.510000,387.590000,322.490000,440.450000C328.090000,433.350000,342.080000,423.640000,353.400000,423.640000C364.150000,423.640000,369.150000,433.110000,369.150000,442.400000C369.150000,450.810000,365.110000,458.630000,365.060000,467.240000C406.560000,474.490000,418.757052,505.292196,391.647052,537.692196C419.077052,529.772196,229.324074,562.663396,143.344668,551.023868C94.618756,548.938929,103.235001,511.045053,155.068540,464.550202C127.423986,445.870028,145.966510,379.099708,181.561238,385.072108C188.961238,359.318692,227.050717,354.181733,242.070000,383.420000Z" transform="matrix(1.03101000000000 0 0 0.94557000000000 -8.43443000000000 29.08430000000000)" fill="url(#ehkSUj8oipM45-fill)" stroke="none" stroke-width="1"/><path id="ehkSUj8oipM46" d="M801.320000,282.620000C798.890000,268.940000,782.120000,230.360000,765.160000,230.360000C750.720000,230.360000,744.440000,254.450000,744.440000,271.920000C744.440000,289.140000,748.420000,307.550000,752,320.350000C743.880000,301.970000,728.530000,286.520000,718.070000,286.520000C711.690000,286.520000,707.130000,292.260000,707.130000,306.590000C707.130000,309.930000,707.380000,313.730000,707.910000,318.030000C699.570000,313.700000,692.940000,311.820000,687.760000,311.820000C676.020000,311.820000,671.720000,321.480000,671.720000,334.150000C671.720000,350.830000,679.180000,372.710000,686.940000,384.610000C674.340000,372.450000,653.830000,351.620000,621.420000,351.620000C612.270000,351.620000,605.170000,354.780000,605.170000,364.300000C605.170000,383.330000,627.800000,406.050000,642.030000,418.590000C629.320000,414.580000,617.790000,412.860000,607.810000,412.860000C583.140000,412.860000,567.980000,423.380000,567.980000,435.830000C567.980000,447.220000,580.690000,460.230000,610.440000,468.270000C592.590000,472.580000,584.910000,483.340000,584.910000,494.750000C584.910000,527.490000,623.420000,532.690000,652.090000,532.690000C734.340000,532.690000,872.450000,488.760000,872.450000,406.850000C872.450000,352.870000,819.810000,321.060000,813.730000,312.250000C807.250000,302.880000,803.240000,293.410000,801.320000,282.620000Z" transform="matrix(1.01459000000000 0 0.04015900000000 0.94457300000000 -31.90230000000000 29.53370000000000)" fill="url(#ehkSUj8oipM46-fill)" stroke="none" stroke-width="1"/><path id="ehkSUj8oipM47" d="M637.681291,465.533425C620.351291,458.023425,607.561291,435.523425,607.561291,415.383425C607.561291,390.653425,626.751291,378.863425,647.671291,378.863425C663.001291,378.863425,677.371291,385.903425,692.331291,392.643425C689.551291,384.413425,688.141291,377.703425,688.141291,372.453425C688.141291,362.513425,693.221291,357.793425,703.751291,357.793425C708.341291,357.793425,713.961291,358.693425,720.641291,360.443425C719.831291,355.163425,719.391291,350.103425,719.391291,345.453425C719.391291,330.133425,724.171291,319.243425,736.081291,319.243425C741.441291,319.243425,748.241291,321.453425,756.691291,326.443425C759.451291,294.753425,776.761291,280.703425,799.361291,280.703425C834.271291,280.703425,944.907695,330.454784,944.907695,434.804784C944.907695,549.634784,844.361291,563.723425,716.501291,563.723425C662.991291,563.723425,599.841291,563.223425,599.841291,508.443425C599.821291,487.853425,615.491291,474.853425,637.681291,465.533425Z" transform="matrix(1 0 -0.06382200000000 1 27.68400000000000 0)" fill="url(#ehkSUj8oipM47-fill)" stroke="none" stroke-width="1"/><path id="ehkSUj8oipM48" d="M566.940000,535.460000C566.580000,526.080000,565.690000,517.630000,565.690000,510.380000C565.690000,493.390000,570.580000,482.980000,598.670000,482.590000C599.130000,481.290000,603.520000,436.610000,640.230000,436.610000C661.170000,436.610000,682.700000,453.980000,693.450000,474.350000C702.390000,462.820000,713.110000,456.740000,723.040000,456.740000C734.050000,456.740000,744.100000,464.200000,749.730000,479.950000C753.380000,478.970000,756.800000,478.520000,759.990000,478.520000C792.190000,478.520000,994.752447,534.723381,1000.942447,562.213381L1000.385514,999.199188L-1.293693,991.948922L-1.293693,536.778922L566.940000,535.460000Z" transform="matrix(1 0 0 0.95976300000000 0 21.54350000000000)" fill="url(#ehkSUj8oipM48-fill)" stroke="none" stroke-width="1"/><path id="ehkSUj8oipM49" d="M814.048514,613.229220C796.258946,614.269867,785.378799,614.971954,769.608799,614.971954C730.138799,614.971954,722.119300,616.461161,708.613113,615.407638C708.613113,606.107638,708.363670,616.386331,708.830000,615.820000C674.820000,599.750000,659.270000,574.490000,659.270000,543.170000C659.270000,516.350000,675.250000,497.750000,697.420000,497.750000C705.540000,497.750000,714.500000,500.250000,723.800000,505.750000C722.170000,500.940000,717.540000,490.910000,717.540000,483.660000C717.540000,475.710000,725.140000,470.960000,733.130000,470.960000C743.050000,470.960000,754.520000,477.050000,761.490000,481.100000C765.850000,468.830000,772.430000,464.360000,779.830000,464.360000C791.430000,464.360000,805.020000,475.380000,815.170000,484.550000C822.060000,470.830000,831.580000,465.500000,842.030000,465.500000C874.370000,465.500000,932.130000,520.560000,932.130000,588.340000C922.980647,609.259134,871.165852,613.664904,831.475852,613.664904C828.285852,613.674904,817.328514,613.599220,814.048514,613.229220Z" transform="matrix(1 0 -0.06806400000000 1.06646000000000 38.59010000000000 -40.72500000000000)" fill="url(#ehkSUj8oipM49-fill)" stroke="none" stroke-width="1"/><g id="ehkSUj8oipM50" transform="matrix(1 0 0.03117600000000 0.97796800000000 -15.64740000000000 11.05780000000000)"><g id="ehkSUj8oipM51" transform="matrix(1 0 0 1 -6.23618000000000 4.79371000000000)"><path id="ehkSUj8oipM52" d="M639.930000,428.760000C644.800000,427.530000,649.590000,426.960000,654.280000,426.960000C697.240000,426.960000,732.380000,474.800000,751.060000,506.280000" fill="none" stroke="url(#ehkSUj8oipM52-stroke)" stroke-width="3" stroke-linecap="round" stroke-linejoin="round" stroke-miterlimit="10"/><g id="ehkSUj8oipM53"><path id="ehkSUj8oipM54" d="M643.180000,426.460000C639.310000,424.030000,629.270000,427.630000,629.270000,429.940000C629.270000,432.850000,641.860000,433.580000,643.180000,426.460000Z" fill="rgb(184,186,129)" stroke="none" stroke-width="1"/><path id="ehkSUj8oipM55" d="M655.807065,426.660810C652.626210,426.119892,649.180000,420.660000,649.180000,417.910000C649.180000,412.260000,660.711618,423.645660,655.807065,426.660810Z" fill="rgb(184,186,129)" stroke="none" stroke-width="1"/><path id="ehkSUj8oipM56" d="M673.882360,429.384485C670.929604,428.003502,668.520000,424.690000,668.520000,420.810000C668.510000,410.790000,680.643045,426.328844,673.882360,429.384485Z" fill="rgb(184,186,129)" stroke="none" stroke-width="1"/><path id="ehkSUj8oipM57" d="M689.520000,436.610000C688.260000,433.350000,685.990000,430.260000,685.990000,427.100000C685.990000,425.320000,686.990000,423.140000,688.670000,423.140000C692.620000,423.140000,697.430000,434.740000,689.520000,436.610000Z" fill="rgb(184,186,129)" stroke="none" stroke-width="1"/><path id="ehkSUj8oipM58" d="M692.050000,441.010000C685.660000,441.010000,673.300000,450.960000,683.840000,450.960000C694.690000,450.950000,698.190000,441.010000,692.050000,441.010000Z" fill="rgb(184,186,129)" stroke="none" stroke-width="1"/><path id="ehkSUj8oipM59" d="M677.583817,432.240836C666.483817,432.520836,663.330000,442.870000,668.870000,442.870000C673.090000,442.870000,680.836627,437.246141,679.446627,433.506141C679.156627,432.706141,678.253817,432.680836,677.583817,432.240836Z" fill="rgb(184,186,129)" stroke="none" stroke-width="1"/><path id="ehkSUj8oipM60" d="M659.650000,427.800000C657.440000,428.170000,648.100000,432.440000,648.100000,436.120000C648.100000,437.580000,649.800000,438.890000,651.250000,438.890000C655.300000,438.890000,659.090000,430.350000,659.650000,427.800000Z" fill="rgb(184,186,129)" stroke="none" stroke-width="1"/><path id="ehkSUj8oipM61" d="M707.140000,450.970000C699.890000,450.020000,693.240000,454.710000,693.240000,457.040000C693.240000,460.640000,707.920000,459.080000,707.140000,450.970000Z" fill="rgb(184,186,129)" stroke="none" stroke-width="1"/><path id="ehkSUj8oipM62" d="M717.280000,464.680000C705.970000,463.630000,702.080000,473.490000,715.790000,473.490000C719.840000,473.490000,727.320000,472.620000,725.710000,468.900000C724.990000,467.210000,722.450000,465.160000,717.280000,464.680000Z" fill="rgb(184,186,129)" stroke="none" stroke-width="1"/><path id="ehkSUj8oipM63" d="M703.240000,445.560000C702.680000,444.690000,702.010000,441.570000,702.010000,437.190000C702.010000,428.960000,709.710000,429.770000,709.150000,438.540000C708.870000,442.870000,704.580000,445.310000,703.240000,445.560000Z" fill="rgb(184,186,129)" stroke="none" stroke-width="1"/><path id="ehkSUj8oipM64" d="M718.440000,460.350000C716.780000,458.160000,716.550000,446.610000,721.340000,446.610000C726.140000,446.610000,727.420000,463.470000,718.440000,460.350000Z" fill="rgb(184,186,129)" stroke="none" stroke-width="1"/><path id="ehkSUj8oipM65" d="M731.270000,476.050000C730.840000,474.350000,733.110000,463.510000,736,463.510000C740.700000,463.510000,742.940000,479.100000,734.430000,479.100000C733.170000,479.100000,732.250000,477.160000,731.270000,476.050000Z" fill="rgb(184,186,129)" stroke="none" stroke-width="1"/><path id="ehkSUj8oipM66" d="M736.440000,483.520000C710.960000,474.060000,728.250000,496.940000,738.600000,487.150000C738.340000,485.940000,737.250000,484.430000,736.440000,483.520000Z" fill="rgb(184,186,129)" stroke="none" stroke-width="1"/><path id="ehkSUj8oipM67" d="M745.050000,494.820000C743.990000,492.840000,745.470000,482.670000,749.430000,482.670000C753.550000,482.660000,752.710000,495.490000,745.050000,494.820000Z" fill="rgb(184,186,129)" stroke="none" stroke-width="1"/><path id="ehkSUj8oipM68" d="M747.930000,500.760000C742.610000,498.450000,731.980000,495.520000,731.980000,501.110000C731.980000,505.700000,746.790000,506.870000,747.930000,500.760000Z" fill="rgb(184,186,129)" stroke="none" stroke-width="1"/></g></g><g id="ehkSUj8oipM69" transform="matrix(0.99352900000000 -0.11358100000000 0.11358100000000 0.99352900000000 -52.35750000000000 90.11700000000000)"><path id="ehkSUj8oipM70" d="M712.470000,425.850000C736.750000,448.450000,750.930000,473.620000,764.710000,504.100000" fill="none" stroke="url(#ehkSUj8oipM70-stroke)" stroke-width="3" stroke-linecap="round" stroke-linejoin="round" stroke-miterlimit="10"/><path id="ehkSUj8oipM71" d="M708.070000,421.450000C708.070000,421.450000,708.260000,406.320000,714.770000,408.240000C721.280000,410.150000,716.300000,423.940000,716.300000,423.940000C716.300000,423.940000,729.130000,418.580000,731.430000,423.940000C733.730000,429.300000,718.010000,431.230000,718.010000,431.230000C718.010000,431.230000,722.050000,442.710000,715.350000,443.860000C708.650000,445.010000,710.560000,432.320000,710.560000,432.320000C710.560000,432.320000,704.620000,444.930000,698.300000,440.570000C691.980000,436.200000,702.510000,428.930000,705.960000,428.160000C695.430000,426.630000,695.810000,421.650000,698.300000,419.160000C700.790000,416.660000,705.960000,417.620000,708.070000,421.450000Z" fill="rgb(220,107,113)" stroke="none" stroke-width="1"/></g><path id="ehkSUj8oipM72" d="M999.941251,514.942983C1000.035490,458.167482,912.803784,392.012073,825.300000,463.100000C807.250000,463.100000,788.330000,469.740000,788.090000,491.250000C782.220000,487.230000,775.930000,485.460000,769.820000,485.460000C752.070000,485.460000,735.810000,500.350000,735.810000,518.120000C735.810000,522.060000,736.610000,526.140000,738.370000,530.230000C737.790000,530.180000,737.210000,530.150000,736.630000,530.150000C716.990000,530.150000,702.430000,559.320000,702.430000,580.820000C702.430000,617.210000,719.254882,615.260125,758.394882,615.260125C829.164882,615.260125,969.717381,612.229790,1000.454608,612.637900C1000.464608,605.377900,999.551607,515.855435,999.941251,515.455394" transform="matrix(1 0 0.06382200000000 1 -39.10870000000000 0)" fill="url(#ehkSUj8oipM72-fill)" stroke="none" stroke-width="1"/><g id="ehkSUj8oipM73"><g id="ehkSUj8oipM74" transform="matrix(0.99980500000000 -0.01976500000000 0.01976500000000 0.99980500000000 -9.91844000000000 16.33500000000000)"><path id="ehkSUj8oipM75" d="M740.810000,391.380000C769.990000,404.490000,803.120000,484.240000,813.810000,510.200000" fill="none" stroke="url(#ehkSUj8oipM75-stroke)" stroke-width="3" stroke-linecap="round" stroke-linejoin="round" stroke-miterlimit="10"/><path id="ehkSUj8oipM76" d="M725.642100,395.789195C726.362100,399.059195,733.512100,399.799195,736.812100,399.589195C745.082100,399.069195,750.992100,393.959195,750.992100,385.399195C750.992100,380.939195,750.242100,375.069195,746.262100,375.069195C743.552100,375.069195,740.472100,381.129195,735.542100,385.539195C732.672100,388.079195,724.912100,392.489195,725.642100,395.789195Z" fill="rgb(111,151,187)" stroke="none" stroke-width="1"/><path id="ehkSUj8oipM77" d="M741.766351,392.252567C741.944134,394.844662,744.114912,394.546240,744.529768,392.640791C746.572311,394.216793,747.257143,389.911138,744.635650,390.201147C745.256420,389.982984,746.267935,389.551170,745.747447,387.778402C745.280609,386.471924,742.825429,386.453710,742.440689,389.968959C740.575713,388.694306,739.450176,391.617567,741.766351,392.252567Z" transform="matrix(1 0 0 1 -5.68479000000000 -5.24177000000000)" fill="url(#ehkSUj8oipM77-fill)" stroke="none" stroke-width="1"/></g><g id="ehkSUj8oipM78" transform="matrix(0.99727000000000 0.07384900000000 -0.07384900000000 0.99727000000000 40.85750000000000 -58.65950000000000)"><path id="ehkSUj8oipM79" d="M757.320000,448.110000C787.710000,464.620000,801.540000,496.110000,814.240000,526.330000" fill="none" stroke="url(#ehkSUj8oipM79-stroke)" stroke-width="3" stroke-linecap="round" stroke-linejoin="round" stroke-miterlimit="10"/><path id="ehkSUj8oipM80" d="M758.420000,448.680000C758.510000,446.650000,752.750000,438.660000,747.700000,438.660000C739.300000,438.660000,748.980000,451.420000,758.420000,448.680000Z" fill="rgb(96,186,129)" stroke="none" stroke-width="1"/><path id="ehkSUj8oipM81" d="M766.720000,453.050000C765.330000,450.520000,764.950000,439.210000,767.860000,439.210000C770.970000,439.210000,774.380000,453.990000,766.720000,453.050000Z" fill="rgb(96,186,129)" stroke="none" stroke-width="1"/><path id="ehkSUj8oipM82" d="M776.010000,461.110000C775.830000,457.970000,777.250000,447.850000,779.600000,447.850000C782.670000,447.840000,784.080000,465.720000,776.010000,461.110000Z" fill="rgb(96,186,129)" stroke="none" stroke-width="1"/><path id="ehkSUj8oipM83" d="M766.470000,455.410000C762.020000,453.680000,749.540000,456.590000,749.540000,459.470000C749.540000,465.740000,776.580000,459.330000,766.470000,455.410000Z" fill="rgb(96,186,129)" stroke="none" stroke-width="1"/><path id="ehkSUj8oipM84" d="M772.130000,465.840000C763.720000,465.840000,762.900000,473.600000,774.370000,473.600000C784.030000,473.600000,785.460000,465.840000,772.130000,465.840000Z" fill="rgb(96,186,129)" stroke="none" stroke-width="1"/><path id="ehkSUj8oipM85" d="M787.630000,474.240000C786.070000,471.100000,789.860000,459.070000,791.620000,459.070000C797.320000,459.060000,796.340000,478.900000,787.630000,474.240000Z" fill="rgb(96,186,129)" stroke="none" stroke-width="1"/></g><g id="ehkSUj8oipM86"><path id="ehkSUj8oipM87" d="M782.180000,402.870000C796.700000,433.890000,808.850000,469.700000,814.910000,503.220000" fill="none" stroke="url(#ehkSUj8oipM87-stroke)" stroke-width="3" stroke-linecap="round" stroke-linejoin="round" stroke-miterlimit="10"/><path id="ehkSUj8oipM88" d="M789.680000,400.120000C790.600000,404.940000,777.730000,410.990000,774.510000,407.780000C768.870000,402.140000,788.410000,393.480000,789.680000,400.120000Z" fill="rgb(255,186,129)" stroke="none" stroke-width="1"/></g></g></g><path id="ehkSUj8oipM89" d="M463.020000,907.070000C526.970000,859.770000,568.440000,783.810000,568.440000,698.170000C568.440000,630.950000,542.900000,569.700000,500.990000,523.590000C497.670000,503.690000,501.460000,469.750000,486.420000,469.750000C481.560000,469.750000,471.620000,477.600000,470.530000,495.040000C436.060000,480.240000,442.690000,531.560000,442.330000,539.220000C442.330000,539.220000,481.620000,539.610000,482.430000,542.950000C482.810000,544.490000,490.840000,545.730000,495.220000,546.410000C510.030000,548.710000,516.250000,549.130000,516.250000,553.990000C516.250000,558.850000,502.970000,560.100000,494.940000,560.670000C487.550000,561.200000,480.770000,564.360000,482.650000,566.250000C484.530000,568.130000,488.280000,568.980000,489.840000,570.540000C491.400000,572.100000,498.900000,578.650000,486.880000,581.950000C478.110000,584.360000,466.750000,588.400000,465.470000,601.670000C464.200000,614.940000,463.020000,907.070000,463.020000,907.070000Z" fill="url(#ehkSUj8oipM89-fill)" stroke="none" stroke-width="1"/><path id="ehkSUj8oipM90" d="M879.182869,243.774387C907.060894,277.077402,993.276600,262.519526,993.276600,250.109526C982.433484,186.841966,968.610094,106.379890,961.734203,67.519571C840.763168,83.553044,524.359285,134.208132,395.133087,153.062822C395.133087,184.552822,422.487682,178.790000,455.357945,178.790000C462.832170,178.790000,470.644542,178.130000,478.573516,176.870000C473.373042,183.150000,461.176413,200.320000,461.176413,211.740000C461.176413,217.600000,464.382984,221.950000,473.408022,222.530000C473.431343,223.010000,473.443003,223.480000,473.443003,223.950000C473.443003,230.930000,474.392199,234.152996,474.392199,241.072996C474.392199,252.112996,484.757658,264.430591,499.484562,264.430591C517.476338,264.430591,534.157960,251.680000,543.229639,242.860000C545.538370,253.930000,546.136366,270.729673,561.749450,270.729673C566.133707,270.729673,571.630798,274.957374,579.384868,269.247374C582.043407,292.807374,591.735363,297.150474,603.955312,297.150474C617.049780,297.150474,633.384382,286.497929,644.242442,279.970000C643.799353,284.300000,643.589468,288.290000,643.589468,291.960000C643.589468,316.960000,653.547327,326.970000,669.393616,326.970000C683.992257,326.970000,703.604809,318.470000,725.024700,305.370000C739.658322,319.280000,757.451874,325.100000,775.956701,325.100000C830.176895,325.090000,873.970735,286.474387,879.182869,243.774387Z" transform="matrix(-0.98848100000000 -0.15134800000000 0.15134800000000 -0.98848100000000 944.45100000000002 1211.68000000000006)" fill="url(#ehkSUj8oipM90-fill)" stroke="none" stroke-width="1"/><path id="ehkSUj8oipM91" d="M778.600000,571.130000C763.280000,594.110000,676.470000,537.430000,650.430000,523.640000C624.390000,509.850000,604.120000,514.090000,575.440000,535.460000C546.770000,556.830000,526.310000,571.130000,515.090000,571.130000C503.870000,571.130000,498.980000,576.360000,529.830000,576.360000C540.250000,576.360000,567.890000,576.820000,567.950000,585.570000C568.010000,594.320000,480.790000,571.570000,479.650000,615.040000C478.880000,644.320000,539.290000,616.990000,575.440000,662.950000C584.960000,675.060000,608.040000,679.900000,618.260000,659.470000C628.480000,639.040000,618.770000,613,641.750000,604.320000C657.263353,622.519928,820.422287,617.817770,844.652287,613.217770C850.680939,561.210397,813.393195,544.422071,778.600000,571.130000Z" fill="url(#ehkSUj8oipM91-fill)" stroke="none" stroke-width="1"/><g id="ehkSUj8oipM92" transform="matrix(0.99046500000000 -0.13776500000000 0.13776500000000 0.99046500000000 -86.10670000000000 114.40400000000000)"><path id="ehkSUj8oipM93" d="M625.850000,653.370000C657.010000,663.650000,680.100000,627.940000,734.090000,672.700000C748.080000,684.290000,759.870000,698.780000,767.700000,712.410000" fill="none" stroke="rgb(168,233,240)" stroke-width="2.451800" stroke-linecap="round" stroke-linejoin="round"/><path id="ehkSUj8oipM94" d="M607.740000,544.330000C611.310000,547.140000,614.510000,550.090000,616.910000,552.650000C644.160000,581.750000,643.700000,623.080000,671.580000,650.080000" fill="none" stroke="rgb(168,233,240)" stroke-width="2.451800" stroke-linecap="round" stroke-linejoin="round"/><path id="ehkSUj8oipM95" d="M573.710000,533.710000C572.770000,544.080000,599.820000,553.890000,607.640000,544.450000C621.040000,528.290000,575.490000,514.090000,573.710000,533.710000Z" fill="rgb(168,233,240)" stroke="none" stroke-width="1"/><path id="ehkSUj8oipM96" d="M646.630000,498.370000C660.430000,509.810000,650.840000,545.170000,635.800000,532.700000C620.850000,520.310000,630.660000,485.130000,646.630000,498.370000Z" fill="rgb(168,233,240)" stroke="none" stroke-width="1"/><path id="ehkSUj8oipM97" d="M621.150000,679.180000C610.420000,684.320000,609.610000,693.060000,615.510000,697.950000C629.420000,709.480000,653.820000,686.290000,642.010000,676.500000C639.440000,674.370000,635.100000,673.440000,628.760000,674.720000C625.770000,675.320000,623.840000,677.890000,621.150000,679.180000Z" fill="rgb(168,233,240)" stroke="none" stroke-width="1"/><path id="ehkSUj8oipM98" d="M619.260000,589.350000C622.730000,591.070000,625.550000,593.170000,628.780000,595.840000C630.730000,597.460000,632.780000,599.230000,634.900000,600.980000C638.710000,604.140000,642.750000,607.250000,646.840000,609.300000" fill="none" stroke="rgb(168,233,240)" stroke-width="2.451800" stroke-linecap="round" stroke-linejoin="round"/><path id="ehkSUj8oipM99" d="M639.700000,534.810000C637.690000,546.230000,631.380000,550.730000,628.240000,567.690000" fill="none" stroke="rgb(168,233,240)" stroke-width="2.451800" stroke-linecap="round" stroke-linejoin="round"/><path id="ehkSUj8oipM100" d="M660.620000,568.290000C652.360000,573.760000,645.200000,581.200000,638.560000,588.520000" fill="none" stroke="rgb(168,233,240)" stroke-width="2.451800" stroke-linecap="round" stroke-linejoin="round"/><path id="ehkSUj8oipM101" d="M675,636.150000C676.830000,640.820000,679.830000,645.370000,683.350000,649.570000" fill="none" stroke="rgb(168,233,240)" stroke-width="2.451800" stroke-linecap="round" stroke-linejoin="round"/><path id="ehkSUj8oipM102" d="M640.150000,675.330000C642.840000,668.750000,644.140000,661.590000,647.850000,654.510000" fill="none" stroke="rgb(168,233,240)" stroke-width="2.451800" stroke-linecap="round" stroke-linejoin="round"/><path id="ehkSUj8oipM103" d="M714.060000,674.840000C722.990000,674.830000,732.820000,677.020000,742.360000,680.120000" fill="none" stroke="rgb(168,233,240)" stroke-width="2.451800" stroke-linecap="round" stroke-linejoin="round"/><path id="ehkSUj8oipM104" d="M714.750000,618.550000C711.110000,635.880000,711.460000,649.210000,712.260000,657.820000" fill="none" stroke="rgb(168,233,240)" stroke-width="2.451800" stroke-linecap="round" stroke-linejoin="round"/><path id="ehkSUj8oipM105" d="M661.430000,556.650000C657.620000,561.240000,659.170000,568.320000,663.490000,571.900000C674.050000,580.650000,702.250000,563.700000,690.050000,553.590000C683.400000,548.060000,667.440000,549.400000,661.430000,556.650000Z" fill="rgb(168,233,240)" stroke="none" stroke-width="1"/><path id="ehkSUj8oipM106" d="M618.040000,591.170000C631.050000,575.480000,594.950000,568.420000,587.200000,577.760000C578.370000,588.420000,608.830000,602.280000,618.040000,591.170000Z" fill="rgb(168,233,240)" stroke="none" stroke-width="1"/><path id="ehkSUj8oipM107" d="M593.150000,644.540000C596.700000,650.930000,615.490000,666.180000,624.710000,655.060000C635.400000,642.160000,605.840000,619.790000,594.410000,633.580000C591.520000,637.050000,591.150000,640.930000,593.150000,644.540000Z" fill="rgb(168,233,240)" stroke="none" stroke-width="1"/><path id="ehkSUj8oipM108" d="M667.940000,605.430000C661.760000,613.050000,663.410000,630.140000,669,634.780000C672.590000,637.750000,676.980000,636.340000,679.930000,632.780000C685.960000,625.500000,685.450000,609.350000,679.020000,604.020000C675.830000,601.380000,671.010000,601.640000,667.940000,605.430000Z" fill="rgb(168,233,240)" stroke="none" stroke-width="1"/><path id="ehkSUj8oipM109" d="M714.080000,618.050000C724.660000,626.820000,739.740000,595.330000,727.290000,585.010000C715.300000,575.080000,700.670000,606.940000,714.080000,618.050000Z" fill="rgb(168,233,240)" stroke="none" stroke-width="1"/><path id="ehkSUj8oipM110" d="M698.610000,689.580000C703.740000,687.440000,708.210000,686.300000,711.270000,682.610000C714.240000,679.020000,715.480000,673.850000,711.930000,670.910000C705.590000,665.660000,686.060000,668.550000,680.880000,674.790000C672.980000,684.340000,683.020000,696.080000,698.610000,689.580000Z" fill="rgb(168,233,240)" stroke="none" stroke-width="1"/></g><g id="ehkSUj8oipM111" transform="matrix(0.99593000000000 0.09013100000000 -0.09013100000000 0.99593000000000 82.34910000000001 -37.19600000000000)"><path id="ehkSUj8oipM112" d="M479.650000,766.300000C479.650000,766.300000,462.220000,792.440000,459.920000,815.250000C457.650000,837.830000,466.320000,863.980000,454.020000,896.250000" fill="none" stroke="rgb(146,221,195)" stroke-width="2.621200" stroke-linecap="round" stroke-linejoin="round" stroke-miterlimit="10"/><ellipse id="ehkSUj8oipM113" rx="13.890000" ry="33.280000" transform="matrix(0.40430000000000 -0.91460000000000 0.91460000000000 0.40430000000000 479.62099999999998 766.28899999999999)" fill="rgb(255,97,122)" stroke="none" stroke-width="1"/><ellipse id="ehkSUj8oipM114" rx="5.450000" ry="13.060000" transform="matrix(0.40430000000000 -0.91460000000000 0.91460000000000 0.40430000000000 479.62099999999998 766.28899999999999)" fill="rgb(130,34,155)" stroke="none" stroke-width="1"/><path id="ehkSUj8oipM115" d="M459.200000,873.430000C422.960000,867.620000,408.610000,818.750000,421.340000,806.940000C404.780000,755.950000,435.730000,749.860000,445.920000,785.580000C450.770000,802.560000,449.240000,819.210000,449.350000,834.700000C451.460000,849.500000,454.040000,857.200000,459.200000,873.430000Z" transform="matrix(0.99883900000000 -0.04817400000000 0.04817500000000 0.99883900000000 -41.59910000000000 22.88950000000000)" fill="url(#ehkSUj8oipM115-fill)" stroke="none" stroke-width="1"/></g><path id="ehkSUj8oipM116" d="M391.240000,226.800000C394.480000,239.700000,401.390000,244.880000,408.810000,244.880000C420.130000,244.880000,432.630000,232.820000,435.130000,217.650000C444.080000,227.320000,454.870000,233.670000,463.850000,233.670000C473.070000,233.670000,480.370000,226.960000,481.770000,210.260000C497.210000,206.450000,508.730000,201.010000,509.760000,183.990000C552.379271,194.185510,575.349190,131.757660,528.967980,113.503018C568.529224,88.546409,543.496150,44.252492,512.166083,29.849903C426.094295,19.550106,91.098563,-21.746579,-26.863660,-30.063850C-32.573806,14.995292,-56.216804,183.647292,-68.087087,281.478273C-35.194603,268.868585,308.370000,306.160000,314.030000,267.170000C329.350000,278.070000,338.110000,269.500000,344.630000,251.950000C364.020000,276.870000,390.570000,251.810000,391.240000,226.800000Z" transform="matrix(0.93743900000000 -0.11589300000000 0.12158300000000 0.98347100000000 29.87500000000000 30.86680000000000)" fill="url(#ehkSUj8oipM116-fill)" stroke="none" stroke-width="1"/><path id="ehkSUj8oipM117" d="M778.410000,630.690000C744.250000,614.560000,702.860000,630.830000,714.190000,673.240000C693.710000,668.800000,688.510000,681.440000,689.540000,702.280000C658.750000,685.290000,642.560000,722.620000,652.870000,748.510000C630.170000,716.360000,602.640000,748.800000,606.300000,778.630000C602.900000,775.320000,592.670000,755.230000,575.900000,762.430000C568.460000,765.620000,563.780000,774.090000,566.250000,784.160000C545.310000,797,531.210000,824.860000,550.320000,844.410000C520.570000,858.650000,516.950000,884.410000,527.490000,908.970000C559.020000,982.460000,664.720866,981.304477,737.660866,950.004477C827.870866,911.304477,872.837985,774.217494,836.887985,690.417494C854.819354,622.783850,810.881958,610.459807,778.410000,630.690000Z" transform="matrix(1 0 0.06116800000000 0.95842000000000 -57.00990000000000 38.75310000000000)" fill="url(#ehkSUj8oipM117-fill)" stroke="none" stroke-width="1"/><path id="ehkSUj8oipM118" d="M769.710000,684.920000C756.160000,690.730000,755.700000,708.470000,759.750000,722.860000C737.490000,716.720000,731,733.050000,737.660000,754.660000C695.070000,740.830000,687.350000,766.220000,709.910000,802.800000C676.080000,784.520000,653.740000,810.550000,658.440000,848.390000C648.560000,850.910000,638.300000,850.830000,629.050000,854.800000C568.010000,880.990000,686.520968,1032.891800,855.840968,960.251800C955.230968,917.611800,904.500847,672.865369,821.741256,718.101099C811.361256,693.911099,793.900000,674.550000,769.710000,684.920000Z" transform="matrix(1 0 -0.06255400000000 0.98012600000000 59.80350000000000 18.99990000000000)" fill="url(#ehkSUj8oipM118-fill)" stroke="none" stroke-width="1"/><g id="ehkSUj8oipM119" transform="matrix(0.99704300000000 0.07685100000000 -0.07685100000000 0.99704300000000 73.35870000000000 -44.51550000000000)"><g id="ehkSUj8oipM120" transform="matrix(0.99951600000000 -0.03111000000000 0.03111000000000 0.99951600000000 -28.28650000000000 20.45480000000000)"><path id="ehkSUj8oipM121" d="M613.270000,869.780000C622.020000,860.260000,630.080000,850.580000,635.540000,836.290000C618.330000,839.280000,606.750000,860.730000,613.270000,869.780000Z" fill="url(#ehkSUj8oipM121-fill)" stroke="none" stroke-width="1"/><path id="ehkSUj8oipM122" d="M601.150000,825.600000C596.100000,816.520000,591.570000,807.430000,589.520000,795C601.550000,800.100000,607.060000,819.280000,601.150000,825.600000Z" fill="url(#ehkSUj8oipM122-fill)" stroke="none" stroke-width="1"/><path id="ehkSUj8oipM123" d="M607.170000,798.820000C599.410000,817.200000,596.130000,843.760000,612.400000,867.840000C627.210000,889.770000,643.120000,912.430000,643.120000,921.480000" fill="none" stroke="url(#ehkSUj8oipM123-stroke)" stroke-width="2.069400" stroke-linecap="round" stroke-linejoin="round" stroke-miterlimit="10"/><path id="ehkSUj8oipM124" d="M605.560000,800.210000C613.890000,797.960000,621.890000,795.370000,630.060000,789.260000C619.290000,784.800000,605.110000,792.770000,605.560000,800.210000Z" fill="url(#ehkSUj8oipM124-fill)" stroke="none" stroke-width="1"/><path id="ehkSUj8oipM125" d="M625.170000,886.180000C611.800000,882.620000,593.700000,870.310000,577.030000,871.780000C587.630000,885.770000,619.030000,895.990000,625.170000,886.180000Z" fill="url(#ehkSUj8oipM125-fill)" stroke="none" stroke-width="1"/></g><path id="ehkSUj8oipM126" d="M674.240000,767.320000C674.240000,767.320000,692.280000,779.480000,695.880000,805.050000C698.720000,825.230000,677.460000,859.370000,659.720000,888.420000C645.260000,912.100000,628.200000,950.350000,636.650000,974.120000" fill="none" stroke="url(#ehkSUj8oipM126-stroke)" stroke-width="2.069400" stroke-linecap="round" stroke-linejoin="round" stroke-miterlimit="10"/><path id="ehkSUj8oipM127" d="M682.780000,773.930000C668.210000,775.470000,653.900000,776.320000,636.650000,772.110000C649.910000,759.320000,677.850000,762.770000,682.780000,773.930000Z" fill="url(#ehkSUj8oipM127-fill)" stroke="none" stroke-width="1"/><path id="ehkSUj8oipM128" d="M674.240000,767.320000C672.190000,758.410000,669.780000,749.840000,663.650000,740.940000C658.500000,752.160000,666.360000,767.490000,674.240000,767.320000Z" fill="url(#ehkSUj8oipM128-fill)" stroke="none" stroke-width="1"/><path id="ehkSUj8oipM129" d="M693.380000,825.190000C681.690000,816.360000,670.650000,807.220000,660.920000,792.360000C679.350000,792.060000,697.400000,813.660000,693.380000,825.190000Z" fill="url(#ehkSUj8oipM129-fill)" stroke="none" stroke-width="1"/><path id="ehkSUj8oipM130" d="M695.380000,798.820000C697.840000,788.810000,699.770000,778.950000,698.110000,766.870000C687.220000,775.550000,687.350000,794.990000,695.380000,798.820000Z" fill="url(#ehkSUj8oipM130-fill)" stroke="none" stroke-width="1"/><path id="ehkSUj8oipM131" d="M651.950000,899.500000C649.700000,883.930000,648.190000,868.610000,652,849.920000C666.280000,863.620000,663.730000,893.740000,651.950000,899.500000Z" fill="url(#ehkSUj8oipM131-fill)" stroke="none" stroke-width="1"/><path id="ehkSUj8oipM132" d="M674.260000,865.430000C686.740000,862.050000,698.730000,858.180000,710.980000,849.020000C694.830000,842.350000,673.580000,854.300000,674.260000,865.430000Z" fill="url(#ehkSUj8oipM132-fill)" stroke="none" stroke-width="1"/><path id="ehkSUj8oipM133" d="M634.780000,964.910000C622.620000,949.030000,611.440000,932.970000,604.060000,909.870000C628.410000,916.210000,644.280000,951.220000,634.780000,964.910000Z" fill="url(#ehkSUj8oipM133-fill)" stroke="none" stroke-width="1"/><path id="ehkSUj8oipM134" d="M636.410000,950.250000C645.330000,941.520000,653.600000,932.610000,659.610000,919.130000C642.870000,921.120000,630.590000,941.190000,636.410000,950.250000Z" fill="url(#ehkSUj8oipM134-fill)" stroke="none" stroke-width="1"/></g><g id="ehkSUj8oipM135" transform="matrix(0.99485200000000 -0.10134000000000 0.10134000000000 0.99485200000000 -94.26400000000000 77.00770000000000)"><path id="ehkSUj8oipM136" d="M700.850000,952.140000C700.850000,952.140000,702.860000,896.190000,710.440000,882.340000C718.020000,868.490000,724.360000,871.460000,726.920000,875.820000C729.480000,880.180000,732.050000,882.440000,735.020000,883.210000C737.700000,863.850000,749.920000,851.210000,755.660000,851.660000C762.870000,852.220000,770.170000,861.290000,770.490000,877.210000C770.820000,893.130000,756.710000,902.180000,751.990000,906.620000C747.270000,911.060000,745.490000,914.550000,749.590000,916.320000C755.820000,919,764.650000,926.620000,755.460000,941.340000C741.860000,963.110000,700.850000,952.140000,700.850000,952.140000Z" transform="matrix(0.89899100000000 -0.11023400000000 0.10299500000000 0.83995500000000 -28.35150000000000 232.06399999999999)" fill="url(#ehkSUj8oipM136-fill)" stroke="none" stroke-width="1"/><path id="ehkSUj8oipM137" d="M694.410000,867.800000C694.410000,867.800000,711.840000,893.940000,714.140000,916.750000C716.410000,939.330000,707.740000,965.480000,720.040000,997.750000" fill="none" stroke="rgb(146,221,195)" stroke-width="2.621200" stroke-linecap="round" stroke-linejoin="round" stroke-miterlimit="10"/><path id="ehkSUj8oipM138" d="M663.970000,881.260000C667.070000,888.270000,683.210000,887.940000,700.030000,880.500000C716.840000,873.070000,727.960000,861.360000,724.860000,854.340000C721.760000,847.330000,705.620000,847.660000,688.800000,855.100000C671.980000,862.530000,660.870000,874.240000,663.970000,881.260000Z" fill="url(#ehkSUj8oipM138-fill)" stroke="none" stroke-width="1"/><ellipse id="ehkSUj8oipM139" rx="13.060000" ry="5.450000" transform="matrix(0.91460000000000 -0.40430000000000 0.40430000000000 0.91460000000000 694.37900000000002 867.80200000000002)" fill="rgb(130,34,155)" stroke="none" stroke-width="1"/></g><path id="ehkSUj8oipM140" d="M244.313708,226.573716C249.972531,268.755986,301.675588,263.295546,299.640000,232.700000C315.830000,245.640000,326.950000,234.470000,329.110000,214.290000C359.340000,240.770000,374.690000,222.560000,369.030000,184.400000C390.460000,211.440000,418.100000,197.880000,427.610000,165.010000C436.650000,166.420000,445.080000,170.120000,454.120000,170.120000C513.730000,170.120000,537.514296,11.960075,372.164296,11.960075C275.104296,11.960075,239.147774,40.289531,239.147774,128.349531C185.241698,162.099025,220.693708,226.573716,244.313708,226.573716Z" transform="matrix(1 0 0.05641800000000 0.88399000000000 -8.00430000000000 16.45890000000000)" fill="url(#ehkSUj8oipM140-fill)" stroke="none" stroke-width="1"/><path id="ehkSUj8oipM141" d="M847.500000,151.680000C863.610000,193.510000,816.330000,233.880000,793.750000,181.850000C782.400000,210.660000,745.480000,229.190000,732.250000,184.620000C709.380000,214.010000,676.720000,207.130000,673.310000,160.870000C655.430000,178.750000,610.190000,191.510000,610.190000,139.950000C590.910000,139.950000,561.140000,129.140000,567.970000,86.940000C574.830000,44.540000,637.060000,31.420000,680.060000,31.420000C753.680000,31.420000,773.948716,43.944206,814.168716,90.584206C822.148716,99.854206,843.100000,140.280000,847.500000,151.680000Z" transform="matrix(1 0 -0.06078100000000 0.95234500000000 -7.14739000000000 -1.90556000000000)" fill="url(#ehkSUj8oipM141-fill)" stroke="none" stroke-width="1"/><path id="ehkSUj8oipM142" d="M977.174457,317.335219C950.225197,418.950514,925.721308,399.173915,838.217524,470.261842C832.137812,445.723810,811.996887,454.563480,811.756887,476.073480C805.886887,472.053480,791.406249,478.656431,800.416614,490.925446C779.085302,459.301078,761.945417,483.588182,761.945417,501.358182C728.336189,493.721404,723.588783,530.433646,731.960435,544.970982C735.512717,552.827074,733.228280,555.413247,726.683275,559.524430C706.593656,567.358689,686.439517,625.476454,686.439517,646.976454C708.021193,647.421028,740.259308,645.618361,779.399308,645.618361C850.169308,645.618361,946.646465,643.780505,977.383692,644.188615C977.393692,636.928615,975.876803,593.946116,976.266447,564.720346" transform="matrix(0.79526300000000 0 0 0.77590000000000 223.02900000000000 113.19199999999999)" fill="url(#ehkSUj8oipM142-fill)" stroke="none" stroke-width="1"/><rect id="ehkSUj8oipM143" width="1002.100000" height="1000" rx="0" ry="0" transform="matrix(1 0 0 1 -1.75625000000000 0)" fill="url(#ehkSUj8oipM143-fill)" stroke="none" stroke-width="1"/><g id="ehkSUj8oipM144" transform="matrix(0.77409200000000 0 0 0.77409200000000 151.38100000000000 89.70940000000000)"><g id="ehkSUj8oipM145" transform="matrix(0.97899000000000 0.20390800000000 -0.20390800000000 0.97899000000000 86.36409999999999 -113.93200000000000)"><g id="ehkSUj8oipM146" transform="matrix(0.97311700000000 0.23031100000000 -0.23031100000000 0.97311700000000 107.95200000000000 -119.83499999999999)"><path id="ehkSUj8oipM147" d="M558.800000,426.950000C558.800000,426.950000,560.750000,409.010000,568.790000,397.850000C564,411.990000,561.100000,419.200000,560.150000,428.140000" fill="none" stroke="rgb(249,255,255)" stroke-width="2.730700" stroke-linecap="round" stroke-linejoin="round" stroke-miterlimit="10"/><path id="ehkSUj8oipM148" d="M563.310000,425.200000C563.310000,425.200000,566.870000,407.100000,570.910000,397.840000C563.710000,417.140000,562.880000,424.160000,562.180000,427.580000" fill="none" stroke="rgb(255,217,140)" stroke-width="2.730700" stroke-linecap="round" stroke-linejoin="round" stroke-miterlimit="10"/></g><g id="ehkSUj8oipM149"><path id="ehkSUj8oipM150" d="M564.790000,400.890000C566.570000,393.860000,569.840000,378.460000,574.640000,371.540000C579.440000,364.620000,593.350000,354.850000,599.350000,354.930000C605.350000,355.010000,605.260000,365.940000,598.810000,378.710000C592.360000,391.480000,571.510000,402.300000,567.890000,404.450000C564.270000,406.600000,564.200000,403.220000,564.790000,400.890000Z" fill="rgb(249,255,255)" stroke="none" stroke-width="1"/><path id="ehkSUj8oipM151" d="M566.730000,399.330000C568.510000,392.300000,573.710000,378.790000,578.510000,371.870000C583.310000,364.950000,593.350000,354.850000,599.350000,354.930000C605.350000,355.010000,605.260000,365.940000,598.810000,378.710000C592.360000,391.480000,576.040000,397.700000,572.420000,399.860000C566.760000,403.240000,566.140000,401.660000,566.730000,399.330000Z" fill="url(#ehkSUj8oipM151-fill)" stroke="none" stroke-width="1"/><path id="ehkSUj8oipM152" d="M577.860000,383.630000C573.480000,387.120000,569.415787,394.076664,565.795787,404.276664C566.305787,404.706664,566.844694,404.523469,568.224694,403.703469C571.834694,401.553469,592.360000,391.490000,598.810000,378.720000C599.470000,377.410000,600.060000,376.120000,600.590000,374.860000C607.740000,361.240000,582.920000,379.600000,577.860000,383.630000Z" fill="rgb(201,151,166)" stroke="none" stroke-width="1"/><path id="ehkSUj8oipM153" d="M577.860000,383.630000C573.480000,387.120000,568.760000,394.670000,565.140000,404.870000C565.650000,405.300000,566.510000,405.280000,567.890000,404.460000C571.500000,402.310000,592.360000,391.490000,598.810000,378.720000C599.470000,377.410000,600.060000,376.120000,600.590000,374.860000C591.100000,381.640000,582.920000,379.600000,577.860000,383.630000Z" fill="url(#ehkSUj8oipM153-fill)" stroke="none" stroke-width="1"/></g></g><g id="ehkSUj8oipM154" transform="matrix(0.98631800000000 0.16485400000000 -0.16485400000000 0.98631800000000 67.87600000000000 -93.17619999999999)"><path id="ehkSUj8oipM155" d="M597.600000,360.770000C600.090000,362.050000,601.170000,365.350000,601.870000,367.640000C608.120000,362.530000,612.600000,349.270000,605.860000,345.640000C599.260000,342.090000,590.910000,350.550000,587.580000,360.210000C591,358.680000,593.410000,358.610000,597.600000,360.770000Z" fill="rgb(249,255,255)" stroke="none" stroke-width="1"/><path id="ehkSUj8oipM156" d="M605.860000,345.640000C602.170000,343.570000,596.450000,347.640000,593.220000,352.730000C590.870000,356.420000,589.590000,360.510000,588.160000,363.650000C588.160000,363.650000,590.090000,362.830000,590.690000,363.410000C591.290000,363.990000,589.840000,366.250000,590.900000,367.070000C591.970000,367.890000,593.790000,366.460000,594.700000,366.830000C595.610000,367.200000,595.340000,368.640000,596.230000,369.280000C597.120000,369.920000,597.950000,368.320000,598.950000,368.720000C599.950000,369.120000,602.110000,368.750000,602.110000,368.750000C606.480000,361.940000,613.840000,350.120000,605.860000,345.640000Z" fill="url(#ehkSUj8oipM156-fill)" stroke="none" stroke-width="1"/><path id="ehkSUj8oipM157" d="M601.800000,356.230000C601.800000,356.230000,595.590000,355.880000,593.060000,360.170000C590.530000,364.460000,591.480000,367.370000,591.480000,367.370000L603.380000,359.960000L601.800000,356.230000Z" fill="url(#ehkSUj8oipM157-fill)" stroke="none" stroke-width="1"/><path id="ehkSUj8oipM158" d="M629.270000,342.450000C618.910000,343.010000,607.730000,347.220000,607.730000,347.220000C607.730000,347.230000,606.880000,348.360000,607.180000,350.400000C598.390000,353.560000,597.420000,361.660000,600.920000,365.930000C602.230000,367.520000,603.890000,366.250000,605.350000,364.620000C608.540000,361.440000,609.490000,356.050000,610.070000,352.210000C612.600000,349.120000,620.440000,345.820000,629.270000,342.450000Z" fill="url(#ehkSUj8oipM158-fill)" stroke="none" stroke-width="1"/><path id="ehkSUj8oipM159" d="M600.400000,353.760000C600.800000,353.360000,601.270000,352.960000,601.790000,352.600000C602.160000,352.340000,602.530000,352.120000,602.900000,351.930000C602.890000,351.730000,602.850000,351.530000,602.770000,351.330000C602.370000,350.390000,601.290000,349.960000,600.350000,350.350000C599.410000,350.750000,598.980000,351.830000,599.370000,352.770000C599.580000,353.240000,599.960000,353.580000,600.400000,353.760000Z" fill="url(#ehkSUj8oipM159-fill)" stroke="none" stroke-width="1"/></g><g id="ehkSUj8oipM160" transform="matrix(0.79093100000000 0.30305700000000 -0.35779900000000 0.93379900000000 255.33600000000001 -151.94499999999999)"><path id="ehkSUj8oipM161" d="M537.587547,353.764548C536.237375,355.324904,545.564578,372.763583,558.250000,379.900000C569.550000,383.410000,576.207011,379.335023,578.997011,377.675023C581.787011,376.005023,583.958702,371.588686,583.128702,370.198686C570.893982,357.503556,538.870810,352.198342,537.587547,353.764548Z" fill="url(#ehkSUj8oipM161-fill)" stroke="none" stroke-width="1"/><path id="ehkSUj8oipM162" d="M581.270000,371.540000C579.037965,366.323123,546.232966,357.120074,543.101433,358.271718C541.326481,361.178415,552.030000,375.060000,561.180000,376.550000C569.110000,377.840000,581.270000,371.540000,581.270000,371.540000Z" fill="rgb(249,255,255)" stroke="none" stroke-width="1"/><path id="ehkSUj8oipM163" d="M581.270000,371.540000L548.350000,362.130000C548.350000,362.130000,555.240000,376.260000,564.390000,377.750000C572.330000,379.040000,581.270000,371.540000,581.270000,371.540000Z" fill="url(#ehkSUj8oipM163-fill)" stroke="none" stroke-width="1"/><path id="ehkSUj8oipM164" d="M575.880000,372.830000C577.360000,373.160000,578.580000,373.090000,579.590000,372.810000C580.640000,372.070000,581.270000,371.540000,581.270000,371.540000L564.620000,366.780000C566.950000,368.600000,571.560000,371.860000,575.880000,372.830000Z" fill="url(#ehkSUj8oipM164-fill)" stroke="none" stroke-width="1"/></g></g></g><mask id="ehkSUj8oipM165" mask-type="luminance"><g id="ehkSUj8oipM166"><path id="ehkSUj8oipM167" d="M818.370000,443.280000C821.630000,439.830000,823.920000,431.980000,821.240000,426.810000C818.560000,421.640000,805.920000,408.620000,797.300000,396.750000C788.680000,384.880000,779.870000,369.370000,777.320000,357.430000C775.160000,347.330000,781.150000,331.640000,781.410000,322.710000C781.670000,313.780000,782.560000,286.070000,777.200000,258.500000C771.840000,230.930000,767.880000,207.150000,741.390000,189.950000C699.710000,162.890000,600.130000,146.040000,514.860000,159.310000C429.580000,172.590000,388.220000,261.440000,393.330000,321.180000C398.440000,380.920000,433.160000,431.990000,440.820000,454.460000C448.480000,476.930000,449.500000,499.910000,446.950000,524.420000C444.400000,548.930000,420.080000,621.180000,403.040000,653.360000C393.620000,671.160000,375.890000,697.160000,357.840000,725.880000C387.390000,729.750000,421.360000,739.060000,459.720000,756.770000C537.350000,792.600000,579.840000,844.080000,603.060000,888.420000C638.030000,896.670000,675.250000,910.670000,728.570000,911.880000C722.760000,887.430000,698.560000,794.770000,687.970000,783.970000C669.200000,764.820000,642.270000,743.120000,606.520000,736.350000C609.070000,725.370000,623.170000,703.390000,631.030000,684.520000C641.240000,660.010000,646.350000,635.500000,654.770000,610.350000C663.190000,585.200000,670.220000,585.200000,676.090000,585.200000C681.960000,585.200000,696.640000,587.110000,712.470000,589.160000C728.300000,591.210000,753.750000,594.810000,767.140000,586.640000C782.360000,577.350000,779.540000,559.210000,778.250000,554.420000C777.140000,550.290000,775.760000,547.770000,776.720000,540.780000C777.680000,533.790000,785.050000,525.940000,791.660000,520.960000C792.900000,512.820000,790.610000,507.360000,784.190000,502.770000C784.190000,502.770000,788.590000,499.710000,794.430000,496.260000C800.270000,492.810000,802.470000,487.450000,800.750000,479.600000C795.870000,473.090000,793.660000,464.570000,796.730000,459.400000C799.790000,454.190000,815.110000,446.720000,818.370000,443.280000Z" fill="url(#ehkSUj8oipM167-fill)" stroke="none" stroke-width="1"/><path id="ehkSUj8oipM168" d="M336.593192,778.779245C398.063192,846.599245,469.160000,881.480000,530.950000,892.320000C618.270000,907.640000,714.368286,927.049995,730.774662,980.649068C757.877822,943.629504,802.049922,861.807014,749.400000,806.670000C766.080000,810.172660,786.096274,800.342513,796.440918,791.944797C766.895438,789.161113,748.887625,779.055886,729.217625,755.555886C722.657625,747.725886,716.766053,737.582641,711.682933,726.943722C708.892933,720.559643,707.370000,713.460000,706.440000,708.660000C705.510000,694.260000,680.769029,625.873779,645.149029,597.153779C564.449029,532.073779,549.360000,437.580000,621.330000,362.290000C641.090000,341.610000,699.730000,302.240000,709.030000,275.350000C709.960000,309.920000,693.080000,329.720000,681.460000,369.560000C719.370000,338.540000,736.450000,310.770000,750.400000,251.220000C753.190000,241.620000,776.960000,240.190000,779.750000,229.630000C781.610000,220.030000,779,202.580000,774.760000,195.770000C770.500000,188.930000,764.660000,181.280000,757.420000,173.360000C735.680000,149.610000,701.390000,123.390000,658.390000,109.360000C643.300000,104.440000,626.890000,102.490000,610.530000,102.620000C594.160000,102.750000,577.830000,104.950000,562.890000,108.320000C540.860000,114.230000,517.610000,119.990000,498.070000,134.400000C496.210000,117.110000,491.560000,98.870000,476.680000,87.350000C449.140000,68.670000,412.960000,72.660000,383.880000,90.020000C369.940000,89.890000,356.420000,92.260000,345.520000,102.710000C344.230000,104.240000,343.090000,105.880000,342.090000,107.610000C334.540000,112.960000,332.010000,119.940000,322.680000,122.610000C284.200000,133.640000,286.660000,196.390000,299.010000,227.550000C300.410000,231.070000,301.850000,234.250000,303.350000,237.110000C302.220000,236.900000,301.250000,236.910000,301.250000,236.910000C290.830000,247.120000,279.504630,257.520195,272.564630,270.640195C265.574630,283.780195,260.565299,298.525330,259.925299,314.255330C263.675299,300.485330,270.603113,287.793739,277.433113,275.953739C282.133113,267.783739,284.891256,264.219321,291.171256,257.409321C287.233786,265.090464,283.788598,273.698068,282.908598,283.778068C281.258598,302.008068,283.658099,315.800356,292.118099,331.730356C290.468099,317.280356,289.475294,304.688258,290.315294,289.878258C291.145294,275.068258,298.500000,262.710000,308.220000,250.810000C308.960000,249.730000,309.420000,248.450000,309.680000,247.100000C324.100000,265.540000,341.630000,261.500000,358.560000,255.400000C359.490000,255.400000,357.630000,265.960000,362.280000,269.800000C289.720000,289.010000,279.512723,370.570349,295.332723,435.870349C297.192723,444.510349,297.816894,467.270675,291.306894,473.990675C275.186894,489.350675,262.925454,508.395601,254.175454,526.995601C249.795454,536.295601,248.578636,542.578577,245.648636,552.458577C237.484903,576.915243,238.524726,594.718412,240.114593,628.092678C241.634593,655.512678,234.652749,680.970142,226.002222,696.036432C240.577039,691.629922,257.116810,655.142643,266.022654,615.950025C268.837715,620.232617,292.163192,729.759245,336.593192,778.779245ZM354.850000,102.210000C354.880000,102.190000,354.910000,102.170000,354.940000,102.160000C360.470000,99.090000,367.050000,97.400000,373.660000,96.890000C372,98.150000,370.360000,99.440000,368.760000,100.780000C363.200000,100.860000,358.650000,101.380000,354.850000,102.210000Z" fill="rgb(255,255,255)" stroke="none" stroke-width="1"/></g></mask></g></svg>