<?xml version="1.0" standalone="no"?><!DOCTYPE svg PUBLIC "-//W3C//DTD SVG 1.1//EN" "http://www.w3.org/Graphics/SVG/1.1/DTD/svg11.dtd"><svg t="1645692244517" class="icon" viewBox="0 0 1024 1024" version="1.1" xmlns="http://www.w3.org/2000/svg" p-id="26574" xmlns:xlink="http://www.w3.org/1999/xlink" width="16" height="16"><defs><style type="text/css"></style></defs><path d="M85.333333 512c0-36.906667 4.693333-72.661333 13.482667-106.837333A128 128 0 0 0 212.906667 207.658667a426.24 426.24 0 0 1 184.96-106.88 128 128 0 0 0 228.181333 0 426.24 426.24 0 0 1 184.96 106.88 128 128 0 0 0 114.133333 197.546666 428.202667 428.202667 0 0 1 0 213.632 128 128 0 0 0-114.133333 197.504 426.24 426.24 0 0 1-184.96 106.88 128 128 0 0 0-228.181333 0 426.24 426.24 0 0 1-184.96-106.88 128 128 0 0 0-114.133334-197.546666A429.056 429.056 0 0 1 85.333333 512z m204.970667 128c26.88 46.549333 34.56 100.096 24.064 150.357333 17.408 12.373333 35.925333 23.082667 55.338667 32A213.034667 213.034667 0 0 1 512 768c53.76 0 104.021333 20.096 142.293333 54.357333 19.413333-8.917333 37.930667-19.626667 55.338667-32A213.034667 213.034667 0 0 1 733.696 640a213.034667 213.034667 0 0 1 118.186667-96 346.709333 346.709333 0 0 0 0-64A213.034667 213.034667 0 0 1 733.653333 384a213.034667 213.034667 0 0 1-24.064-150.357333 340.864 340.864 0 0 0-55.338666-32A213.034667 213.034667 0 0 1 512 256a213.034667 213.034667 0 0 1-142.293333-54.357333 340.906667 340.906667 0 0 0-55.338667 32A213.034667 213.034667 0 0 1 290.304 384a213.034667 213.034667 0 0 1-118.186667 96 346.709333 346.709333 0 0 0 0 64A213.034667 213.034667 0 0 1 290.346667 640zM512 640a128 128 0 1 1 0-256 128 128 0 0 1 0 256z m0-85.333333a42.666667 42.666667 0 1 0 0-85.333334 42.666667 42.666667 0 0 0 0 85.333334z" p-id="26575" fill="#cf5659"></path></svg>