<?xml version="1.0" standalone="no"?><!DOCTYPE svg PUBLIC "-//W3C//DTD SVG 1.1//EN" "http://www.w3.org/Graphics/SVG/1.1/DTD/svg11.dtd"><svg t="1646537994016" class="icon" viewBox="0 0 1024 1024" version="1.1" xmlns="http://www.w3.org/2000/svg" p-id="27531" xmlns:xlink="http://www.w3.org/1999/xlink" width="20" height="20"><defs><style type="text/css"></style></defs><path d="M557.226667 346.026667l60.373333 60.373333a298.666667 298.666667 0 0 1 0 422.4l-15.104 15.061333a298.666667 298.666667 0 0 1-422.4-422.4l60.373333 60.373334a213.333333 213.333333 0 1 0 301.696 301.696l15.104-15.104a213.333333 213.333333 0 0 0 0-301.653334l-60.373333-60.373333 60.373333-60.330667z m286.634666 256.469333l-60.330666-60.330667a213.333333 213.333333 0 1 0-301.696-301.696l-15.104 15.104a213.333333 213.333333 0 0 0 0 301.653334l60.373333 60.373333-60.373333 60.330667-60.330667-60.330667a298.666667 298.666667 0 0 1 0-422.4l15.104-15.061333a298.666667 298.666667 0 0 1 422.4 422.4z" p-id="27532" fill="#bfbfbf"></path></svg>